<svg width="81" height="22" viewBox="0 0 81 22" fill="none" xmlns="http://www.w3.org/2000/svg">
<path d="M22.2784 18V6.36364H29.5739V7.875H24.0341V11.4205H29.1932V12.9261H24.0341V16.4886H29.642V18H22.2784ZM31.7827 18V9.27273H33.4134V10.6932H33.5213C33.7031 10.2121 34.0005 9.83712 34.4134 9.56818C34.8262 9.29545 35.3205 9.15909 35.8963 9.15909C36.4796 9.15909 36.9683 9.29545 37.3622 9.56818C37.7599 9.84091 38.0535 10.2159 38.2429 10.6932H38.3338C38.5421 10.2273 38.8736 9.85606 39.3281 9.57955C39.7827 9.29924 40.3243 9.15909 40.9531 9.15909C41.7448 9.15909 42.3906 9.4072 42.8906 9.90341C43.3944 10.3996 43.6463 11.1477 43.6463 12.1477V18H41.9474V12.3068C41.9474 11.7159 41.7865 11.2879 41.4645 11.0227C41.1425 10.7576 40.758 10.625 40.3111 10.625C39.758 10.625 39.3281 10.7955 39.0213 11.1364C38.7145 11.4735 38.5611 11.9072 38.5611 12.4375V18H36.8679V12.1989C36.8679 11.7254 36.7202 11.3447 36.4247 11.0568C36.1293 10.7689 35.7448 10.625 35.2713 10.625C34.9493 10.625 34.652 10.7102 34.3793 10.8807C34.1103 11.0473 33.8925 11.2803 33.7259 11.5795C33.563 11.8788 33.4815 12.2254 33.4815 12.6193V18H31.7827ZM48.4631 18.1932C47.91 18.1932 47.41 18.0909 46.9631 17.8864C46.5161 17.678 46.1619 17.3769 45.9006 16.983C45.643 16.589 45.5142 16.1061 45.5142 15.5341C45.5142 15.0417 45.6089 14.6364 45.7983 14.3182C45.9877 14 46.2434 13.7481 46.5653 13.5625C46.8873 13.3769 47.2472 13.2367 47.6449 13.142C48.0426 13.0473 48.4479 12.9754 48.8608 12.9261C49.3835 12.8655 49.8078 12.8163 50.1335 12.7784C50.4593 12.7367 50.696 12.6705 50.8438 12.5795C50.9915 12.4886 51.0653 12.3409 51.0653 12.1364V12.0966C51.0653 11.6004 50.9252 11.2159 50.6449 10.9432C50.3684 10.6705 49.9555 10.5341 49.4062 10.5341C48.8343 10.5341 48.3835 10.661 48.054 10.9148C47.7282 11.1648 47.5028 11.4432 47.3778 11.75L45.7812 11.3864C45.9706 10.8561 46.2472 10.428 46.6108 10.1023C46.9782 9.77273 47.4006 9.53409 47.8778 9.38636C48.3551 9.23485 48.857 9.15909 49.3835 9.15909C49.732 9.15909 50.1013 9.20076 50.4915 9.28409C50.8854 9.36364 51.2528 9.51136 51.5938 9.72727C51.9384 9.94318 52.2206 10.2519 52.4403 10.6534C52.66 11.0511 52.7699 11.5682 52.7699 12.2045V18H51.1108V16.8068H51.0426C50.9328 17.0265 50.768 17.2424 50.5483 17.4545C50.3286 17.6667 50.0464 17.8428 49.7017 17.983C49.357 18.1231 48.9441 18.1932 48.4631 18.1932ZM48.8324 16.8295C49.3021 16.8295 49.7036 16.7367 50.0369 16.5511C50.3741 16.3655 50.6297 16.1231 50.804 15.8239C50.982 15.5208 51.071 15.197 51.071 14.8523V13.7273C51.0104 13.7879 50.893 13.8447 50.7188 13.8977C50.5483 13.947 50.3532 13.9905 50.1335 14.0284C49.9138 14.0625 49.6998 14.0947 49.4915 14.125C49.2831 14.1515 49.1089 14.1742 48.9688 14.1932C48.6392 14.2348 48.3381 14.3049 48.0653 14.4034C47.7964 14.5019 47.5805 14.6439 47.4176 14.8295C47.2585 15.0114 47.179 15.2538 47.179 15.5568C47.179 15.9773 47.3343 16.2955 47.6449 16.5114C47.9555 16.7235 48.3513 16.8295 48.8324 16.8295ZM55.0327 18V9.27273H56.7315V18H55.0327ZM55.8906 7.92614C55.5952 7.92614 55.3414 7.82765 55.1293 7.63068C54.9209 7.42992 54.8168 7.19129 54.8168 6.91477C54.8168 6.63447 54.9209 6.39583 55.1293 6.19886C55.3414 5.99811 55.5952 5.89773 55.8906 5.89773C56.1861 5.89773 56.438 5.99811 56.6463 6.19886C56.8584 6.39583 56.9645 6.63447 56.9645 6.91477C56.9645 7.19129 56.8584 7.42992 56.6463 7.63068C56.438 7.82765 56.1861 7.92614 55.8906 7.92614ZM60.7159 6.36364V18H59.017V6.36364H60.7159Z" fill="white"/>
<path d="M71 3.75H77.25V10M77.25 3.75L69.75 11.25L77.25 3.75Z" stroke="white" stroke-width="2" stroke-linecap="round" stroke-linejoin="round"/>
<path d="M16.84 11.7H12.885L9.62497 14.945C9.4376 15.1313 9.18415 15.2358 8.91997 15.2358C8.65578 15.2358 8.40233 15.1313 8.21497 14.945L0.999966 7.75C0.977786 7.83152 0.966025 7.91552 0.964966 8V18C0.964966 18.2652 1.07032 18.5196 1.25786 18.7071C1.4454 18.8946 1.69975 19 1.96497 19H15.965C16.2302 19 16.4845 18.8946 16.6721 18.7071C16.8596 18.5196 16.965 18.2652 16.965 18V11.69L16.84 11.7ZM2.64997 18H1.95497V17.285L5.58997 13.68L6.29497 14.385L2.64997 18ZM15.955 18H15.255L11.61 14.385L12.315 13.68L15.95 17.285L15.955 18Z" fill="white"/>
<path d="M11.4699 11.7H11.1199C10.7954 11.7042 10.4756 11.6225 10.1929 11.4631C9.91017 11.3038 9.67461 11.0726 9.51011 10.7928C9.34562 10.5131 9.25803 10.1948 9.25625 9.87028C9.25446 9.54576 9.33854 9.22654 9.49995 8.945L10.6449 7H1.95995C1.87022 7.00138 1.78108 7.01484 1.69495 7.04L8.91995 14.235L11.4699 11.7Z" fill="white"/>
<path d="M13.4249 4.57L10.5649 9.5C10.4984 9.59766 10.4602 9.71184 10.4546 9.82989C10.449 9.94793 10.4761 10.0652 10.5331 10.1688C10.59 10.2723 10.6745 10.3581 10.7772 10.4165C10.8799 10.475 10.9968 10.5039 11.1149 10.5H16.8399C16.9581 10.5039 17.0749 10.475 17.1776 10.4165C17.2803 10.3581 17.3649 10.2723 17.4218 10.1688C17.4788 10.0652 17.5059 9.94793 17.5003 9.82989C17.4947 9.71184 17.4565 9.59766 17.3899 9.5L14.5299 4.57C14.4735 4.47353 14.3929 4.3935 14.2959 4.33789C14.199 4.28228 14.0892 4.25302 13.9774 4.25302C13.8657 4.25302 13.7559 4.28228 13.659 4.33789C13.562 4.3935 13.4813 4.47353 13.4249 4.57V4.57Z" fill="white"/>
</svg>
