<svg width="91" height="20" viewBox="0 0 91 20" fill="none" xmlns="http://www.w3.org/2000/svg">
<path d="M8.99297 2.34121C4.6459 2.33945 1.125 5.85859 1.125 10.2021C1.125 13.6369 3.32754 16.5566 6.39492 17.6289C6.80801 17.7326 6.74473 17.4391 6.74473 17.2387V15.8764C4.35938 16.1559 4.2627 14.5773 4.10273 14.3137C3.7793 13.7617 3.01465 13.6211 3.24316 13.3574C3.78633 13.0779 4.34004 13.4277 4.98164 14.3752C5.4457 15.0625 6.35098 14.9465 6.80977 14.8322C6.90996 14.4191 7.12441 14.05 7.41973 13.7635C4.94824 13.3205 3.91816 11.8123 3.91816 10.0193C3.91816 9.14922 4.20469 8.34941 4.76719 7.7043C4.40859 6.64082 4.80059 5.73027 4.85332 5.59492C5.87461 5.50351 6.93633 6.32617 7.01895 6.39121C7.59902 6.23476 8.26172 6.15215 9.00352 6.15215C9.74883 6.15215 10.4133 6.23828 10.9986 6.39648C11.1973 6.24531 12.1816 5.53867 13.1309 5.6248C13.1818 5.76015 13.565 6.64961 13.2275 7.69902C13.7971 8.3459 14.0871 9.15273 14.0871 10.0246C14.0871 11.8211 13.05 13.3311 10.5715 13.767C10.7838 13.9758 10.9523 14.2247 11.0673 14.4994C11.1823 14.774 11.2414 15.0689 11.2412 15.3666V17.3441C11.2553 17.5023 11.2412 17.6588 11.5049 17.6588C14.618 16.6094 16.8592 13.6686 16.8592 10.2039C16.8592 5.85859 13.3365 2.34121 8.99297 2.34121V2.34121Z" fill="white"/>
<path d="M31.1534 8.03977C31.0436 7.69508 30.8958 7.38636 30.7102 7.11364C30.5284 6.83712 30.3106 6.60227 30.0568 6.40909C29.803 6.21212 29.5133 6.0625 29.1875 5.96023C28.8655 5.85795 28.5114 5.80682 28.125 5.80682C27.4697 5.80682 26.8788 5.97538 26.3523 6.3125C25.8258 6.64962 25.4091 7.14394 25.1023 7.79545C24.7992 8.44318 24.6477 9.23674 24.6477 10.1761C24.6477 11.1193 24.8011 11.9167 25.108 12.5682C25.4148 13.2197 25.8352 13.714 26.3693 14.0511C26.9034 14.3883 27.5114 14.5568 28.1932 14.5568C28.8258 14.5568 29.3769 14.428 29.8466 14.1705C30.3201 13.9129 30.6856 13.5492 30.9432 13.0795C31.2045 12.6061 31.3352 12.0492 31.3352 11.4091L31.7898 11.4943H28.4602V10.0455H33.0341V11.3693C33.0341 12.3466 32.8258 13.1951 32.4091 13.9148C31.9962 14.6307 31.4242 15.1837 30.6932 15.5739C29.9659 15.964 29.1326 16.1591 28.1932 16.1591C27.1402 16.1591 26.2159 15.9167 25.4205 15.4318C24.6288 14.947 24.0114 14.2595 23.5682 13.3693C23.125 12.4754 22.9034 11.4148 22.9034 10.1875C22.9034 9.25947 23.0322 8.42614 23.2898 7.6875C23.5473 6.94886 23.9091 6.32197 24.375 5.80682C24.8447 5.28788 25.3958 4.89205 26.0284 4.61932C26.6648 4.3428 27.3598 4.20455 28.1136 4.20455C28.7424 4.20455 29.3277 4.29735 29.8693 4.48295C30.4148 4.66856 30.8996 4.93182 31.3239 5.27273C31.7519 5.61364 32.1061 6.01894 32.3864 6.48864C32.6667 6.95455 32.8561 7.47159 32.9545 8.03977H31.1534ZM35.6733 16V7.27273H37.3722V16H35.6733ZM36.5312 5.92614C36.2358 5.92614 35.982 5.82765 35.7699 5.63068C35.5616 5.42992 35.4574 5.19129 35.4574 4.91477C35.4574 4.63447 35.5616 4.39583 35.7699 4.19886C35.982 3.99811 36.2358 3.89773 36.5312 3.89773C36.8267 3.89773 37.0786 3.99811 37.2869 4.19886C37.4991 4.39583 37.6051 4.63447 37.6051 4.91477C37.6051 5.19129 37.4991 5.42992 37.2869 5.63068C37.0786 5.82765 36.8267 5.92614 36.5312 5.92614ZM43.7315 7.27273V8.63636H38.9645V7.27273H43.7315ZM40.2429 5.18182H41.9418V13.4375C41.9418 13.767 41.991 14.0152 42.0895 14.1818C42.188 14.3447 42.3149 14.4564 42.4702 14.517C42.6293 14.5739 42.8016 14.6023 42.9872 14.6023C43.1236 14.6023 43.2429 14.5928 43.3452 14.5739C43.4474 14.5549 43.527 14.5398 43.5838 14.5284L43.8906 15.9318C43.7921 15.9697 43.652 16.0076 43.4702 16.0455C43.2884 16.0871 43.0611 16.1098 42.7884 16.1136C42.3414 16.1212 41.9247 16.0417 41.5384 15.875C41.152 15.7083 40.8395 15.4508 40.6009 15.1023C40.3622 14.7538 40.2429 14.3163 40.2429 13.7898V5.18182ZM47.4972 10.8182V16H45.7983V4.36364H47.4744V8.69318H47.5824C47.7869 8.22348 48.0994 7.85038 48.5199 7.57386C48.9403 7.29735 49.4896 7.15909 50.1676 7.15909C50.7661 7.15909 51.2888 7.2822 51.7358 7.52841C52.1866 7.77462 52.535 8.14205 52.7812 8.63068C53.0312 9.11553 53.1562 9.72159 53.1562 10.4489V16H51.4574V10.6534C51.4574 10.0133 51.2926 9.51705 50.9631 9.16477C50.6335 8.80871 50.1752 8.63068 49.5881 8.63068C49.1866 8.63068 48.8267 8.71591 48.5085 8.88636C48.1941 9.05682 47.946 9.30682 47.7642 9.63636C47.5862 9.96212 47.4972 10.3561 47.4972 10.8182ZM60.9517 12.3807V7.27273H62.6562V16H60.9858V14.4886H60.8949C60.6941 14.9545 60.3722 15.3428 59.929 15.6534C59.4896 15.9602 58.9422 16.1136 58.2869 16.1136C57.7263 16.1136 57.2301 15.9905 56.7983 15.7443C56.3703 15.4943 56.0331 15.125 55.7869 14.6364C55.5445 14.1477 55.4233 13.5436 55.4233 12.8239V7.27273H57.1222V12.6193C57.1222 13.214 57.2869 13.6875 57.6165 14.0398C57.946 14.392 58.3741 14.5682 58.9006 14.5682C59.2188 14.5682 59.535 14.4886 59.8494 14.3295C60.1676 14.1705 60.4309 13.9299 60.6392 13.608C60.8513 13.286 60.9555 12.8769 60.9517 12.3807ZM65.0753 16V4.36364H66.7741V8.6875H66.8764C66.9749 8.50568 67.117 8.29545 67.3026 8.05682C67.4882 7.81818 67.7457 7.60985 68.0753 7.43182C68.4048 7.25 68.8404 7.15909 69.3821 7.15909C70.0866 7.15909 70.7154 7.33712 71.2685 7.69318C71.8215 8.04924 72.2552 8.5625 72.5696 9.23295C72.8878 9.90341 73.0469 10.7102 73.0469 11.6534C73.0469 12.5966 72.8897 13.4053 72.5753 14.0795C72.2609 14.75 71.8291 15.267 71.2798 15.6307C70.7306 15.9905 70.1037 16.1705 69.3991 16.1705C68.8688 16.1705 68.4351 16.0814 68.098 15.9034C67.7647 15.7254 67.5033 15.517 67.3139 15.2784C67.1245 15.0398 66.9787 14.8277 66.8764 14.642H66.7344V16H65.0753ZM66.7401 11.6364C66.7401 12.25 66.8291 12.7879 67.0071 13.25C67.1851 13.7121 67.4427 14.0739 67.7798 14.3352C68.117 14.5928 68.5298 14.7216 69.0185 14.7216C69.526 14.7216 69.9503 14.5871 70.2912 14.3182C70.6321 14.0455 70.8897 13.6761 71.0639 13.2102C71.242 12.7443 71.331 12.2197 71.331 11.6364C71.331 11.0606 71.2438 10.5436 71.0696 10.0852C70.8991 9.62689 70.6416 9.26515 70.2969 9C69.956 8.73485 69.5298 8.60227 69.0185 8.60227C68.526 8.60227 68.1094 8.72917 67.7685 8.98295C67.4313 9.23674 67.1757 9.59091 67.0014 10.0455C66.8272 10.5 66.7401 11.0303 66.7401 11.6364Z" fill="white"/>
<path d="M81 3.75H87.25V10M87.25 3.75L79.75 11.25L87.25 3.75Z" stroke="white" strokeWidth="2" stroke-linecap="round" stroke-linejoin="round"/>
</svg>
