<svg width="103" height="20" viewBox="0 0 103 20" fill="none" xmlns="http://www.w3.org/2000/svg">
<path d="M22.2784 16V4.36364H24.0341V14.4886H29.3068V16H22.2784ZM31.1733 16V7.27273H32.8722V16H31.1733ZM32.0312 5.92614C31.7358 5.92614 31.482 5.82765 31.2699 5.63068C31.0616 5.42992 30.9574 5.19129 30.9574 4.91477C30.9574 4.63447 31.0616 4.39583 31.2699 4.19886C31.482 3.99811 31.7358 3.89773 32.0312 3.89773C32.3267 3.89773 32.5786 3.99811 32.7869 4.19886C32.9991 4.39583 33.1051 4.63447 33.1051 4.91477C33.1051 5.19129 32.9991 5.42992 32.7869 5.63068C32.5786 5.82765 32.3267 5.92614 32.0312 5.92614ZM36.8565 10.8182V16H35.1577V7.27273H36.7884V8.69318H36.8963C37.0971 8.23106 37.4115 7.85985 37.8395 7.57955C38.2713 7.29924 38.8149 7.15909 39.4702 7.15909C40.0649 7.15909 40.5857 7.28409 41.0327 7.53409C41.4796 7.7803 41.8262 8.14773 42.0724 8.63636C42.3187 9.125 42.4418 9.72917 42.4418 10.4489V16H40.7429V10.6534C40.7429 10.0208 40.5781 9.52652 40.2486 9.17045C39.919 8.81061 39.4664 8.63068 38.8906 8.63068C38.4967 8.63068 38.1463 8.71591 37.8395 8.88636C37.5365 9.05682 37.2959 9.30682 37.1179 9.63636C36.9437 9.96212 36.8565 10.3561 36.8565 10.8182ZM46.2827 13.0398L46.2713 10.9659H46.5668L50.044 7.27273H52.0781L48.1122 11.4773H47.8452L46.2827 13.0398ZM44.7202 16V4.36364H46.419V16H44.7202ZM50.2315 16L47.1065 11.8523L48.277 10.6648L52.3168 16H50.2315ZM57.0284 16.1761C56.1686 16.1761 55.428 15.9924 54.8068 15.625C54.1894 15.2538 53.7121 14.733 53.375 14.0625C53.0417 13.3883 52.875 12.5985 52.875 11.6932C52.875 10.7992 53.0417 10.0114 53.375 9.32955C53.7121 8.64773 54.1818 8.11553 54.7841 7.73295C55.3902 7.35038 56.0985 7.15909 56.9091 7.15909C57.4015 7.15909 57.8788 7.24053 58.3409 7.40341C58.803 7.56629 59.2178 7.82197 59.5852 8.17045C59.9527 8.51894 60.2424 8.97159 60.4545 9.52841C60.6667 10.0814 60.7727 10.7538 60.7727 11.5455V12.1477H53.8352V10.875H59.108C59.108 10.428 59.017 10.0322 58.8352 9.6875C58.6534 9.33902 58.3977 9.06439 58.0682 8.86364C57.7424 8.66288 57.3598 8.5625 56.9205 8.5625C56.4432 8.5625 56.0265 8.67992 55.6705 8.91477C55.3182 9.14583 55.0455 9.44886 54.8523 9.82386C54.6629 10.1951 54.5682 10.5985 54.5682 11.0341V12.0284C54.5682 12.6117 54.6705 13.108 54.875 13.517C55.0833 13.9261 55.3731 14.2386 55.7443 14.4545C56.1155 14.6667 56.5492 14.7727 57.0455 14.7727C57.3674 14.7727 57.661 14.7273 57.9261 14.6364C58.1913 14.5417 58.4205 14.4015 58.6136 14.2159C58.8068 14.0303 58.9545 13.8011 59.0568 13.5284L60.6648 13.8182C60.536 14.2917 60.3049 14.7064 59.9716 15.0625C59.642 15.4148 59.2273 15.6894 58.7273 15.8864C58.2311 16.0795 57.6648 16.1761 57.0284 16.1761ZM65.9247 16.1705C65.2202 16.1705 64.5914 15.9905 64.0384 15.6307C63.4891 15.267 63.0573 14.75 62.7429 14.0795C62.4323 13.4053 62.277 12.5966 62.277 11.6534C62.277 10.7102 62.4342 9.90341 62.7486 9.23295C63.0668 8.5625 63.5024 8.04924 64.0554 7.69318C64.6084 7.33712 65.2353 7.15909 65.9361 7.15909C66.4777 7.15909 66.9134 7.25 67.2429 7.43182C67.5762 7.60985 67.8338 7.81818 68.0156 8.05682C68.2012 8.29545 68.3452 8.50568 68.4474 8.6875H68.5497V4.36364H70.2486V16H68.5895V14.642H68.4474C68.3452 14.8277 68.1974 15.0398 68.0043 15.2784C67.8149 15.517 67.5535 15.7254 67.2202 15.9034C66.8868 16.0814 66.455 16.1705 65.9247 16.1705ZM66.2997 14.7216C66.7884 14.7216 67.2012 14.5928 67.5384 14.3352C67.8793 14.0739 68.1368 13.7121 68.3111 13.25C68.4891 12.7879 68.5781 12.25 68.5781 11.6364C68.5781 11.0303 68.491 10.5 68.3168 10.0455C68.1425 9.59091 67.8868 9.23674 67.5497 8.98295C67.2126 8.72917 66.7959 8.60227 66.2997 8.60227C65.7884 8.60227 65.3622 8.73485 65.0213 9C64.6804 9.26515 64.4228 9.62689 64.2486 10.0852C64.0781 10.5436 63.9929 11.0606 63.9929 11.6364C63.9929 12.2197 64.08 12.7443 64.2543 13.2102C64.4285 13.6761 64.6861 14.0455 65.027 14.3182C65.3717 14.5871 65.7959 14.7216 66.2997 14.7216ZM74.5653 4.36364V16H72.8097V4.36364H74.5653ZM78.6847 10.8182V16H76.9858V7.27273H78.6165V8.69318H78.7244C78.9252 8.23106 79.2396 7.85985 79.6676 7.57955C80.0994 7.29924 80.643 7.15909 81.2983 7.15909C81.893 7.15909 82.4138 7.28409 82.8608 7.53409C83.3078 7.7803 83.6544 8.14773 83.9006 8.63636C84.1468 9.125 84.2699 9.72917 84.2699 10.4489V16H82.571V10.6534C82.571 10.0208 82.4063 9.52652 82.0767 9.17045C81.7472 8.81061 81.2945 8.63068 80.7188 8.63068C80.3248 8.63068 79.9744 8.71591 79.6676 8.88636C79.3646 9.05682 79.1241 9.30682 78.946 9.63636C78.7718 9.96212 78.6847 10.3561 78.6847 10.8182Z" fill="white"/>
<path d="M93 3.75H99.25V10M99.25 3.75L91.75 11.25L99.25 3.75Z" stroke="white" strokeWidth="2" stroke-linecap="round" stroke-linejoin="round"/>
<path fill-rule="evenodd" clip-rule="evenodd" d="M0.75 3.1285C0.75 2.7629 0.895235 2.41227 1.15375 2.15376C1.41227 1.89524 1.7629 1.75 2.1285 1.75H15.87C16.0512 1.74971 16.2306 1.78515 16.3981 1.8543C16.5656 1.92345 16.7178 2.02496 16.8459 2.153C16.9741 2.28105 17.0758 2.43312 17.1451 2.60051C17.2145 2.7679 17.2501 2.94732 17.25 3.1285V16.87C17.2502 17.0512 17.2147 17.2307 17.1454 17.3982C17.0762 17.5656 16.9746 17.7178 16.8465 17.846C16.7184 17.9742 16.5663 18.0758 16.3989 18.1451C16.2314 18.2145 16.052 18.2501 15.8707 18.25H2.1285C1.94741 18.25 1.76809 18.2143 1.6008 18.145C1.4335 18.0757 1.2815 17.9741 1.15349 17.846C1.02547 17.7179 0.923949 17.5658 0.854717 17.3985C0.785485 17.2312 0.749902 17.0518 0.75 16.8708V3.1285ZM7.281 8.041H9.51525V9.163C9.83775 8.518 10.6627 7.9375 11.9025 7.9375C14.2792 7.9375 14.8425 9.22225 14.8425 11.5795V15.946H12.4373V12.1165C12.4373 10.774 12.1147 10.0165 11.2957 10.0165C10.1595 10.0165 9.687 10.8333 9.687 12.1165V15.946H7.281V8.041ZM3.156 15.8433H5.562V7.9375H3.156V15.8425V15.8433ZM5.90625 5.359C5.91079 5.56501 5.87413 5.76984 5.79843 5.96149C5.72273 6.15313 5.60951 6.32773 5.46542 6.47503C5.32133 6.62232 5.14927 6.73936 4.95934 6.81926C4.76941 6.89916 4.56543 6.94031 4.35938 6.94031C4.15332 6.94031 3.94934 6.89916 3.75941 6.81926C3.56948 6.73936 3.39742 6.62232 3.25333 6.47503C3.10924 6.32773 2.99602 6.15313 2.92032 5.96149C2.84462 5.76984 2.80796 5.56501 2.8125 5.359C2.8214 4.95464 2.98829 4.56985 3.27741 4.28702C3.56654 4.00419 3.95492 3.84582 4.35938 3.84582C4.76383 3.84582 5.15221 4.00419 5.44134 4.28702C5.73046 4.56985 5.89735 4.95464 5.90625 5.359V5.359Z" fill="white"/>
</svg>
