<svg width="70" height="77" viewBox="0 0 70 77" fill="none" xmlns="http://www.w3.org/2000/svg">
<g filter="url(#filter0_d_3_70)">
<path d="M39.4648 57.5822C39.2015 58.1775 38.8882 58.8723 38.5788 59.5303C38.0954 60.5581 36.3521 61.293 35.5916 60.4495L32.7892 57.3414C31.9206 56.378 30.4459 56.2917 29.443 57.1144C29.0337 57.4502 28.7021 57.7104 28.6015 57.7594C28.2959 57.9084 25.9049 59.5303 25.4915 59.5303C25.333 59.5303 24.8494 59.8923 24.2969 60.3562C23.1225 61.342 21.9106 62.2875 20.5865 63.0607L18.6961 64.1646L16.6689 65.4547C15.4235 66.2472 14.102 66.9271 12.6816 67.3291C12.0249 67.515 11.4104 67.6568 11.0739 67.6568C10.41 67.6568 8.59657 68.1448 7.5341 68.4584C7.34526 68.5141 7.14079 68.4611 7.00429 68.3192C6.81523 68.1227 6.8089 67.8139 6.98975 67.6098L7.06451 67.5254C7.16906 67.4074 7.22678 67.2553 7.22678 67.0976V63.0863C7.22678 62.3523 7.62457 61.6759 8.26609 61.3191L12.6449 58.8836C13.1101 58.6249 13.6266 59.1304 13.3779 59.601C13.2971 59.754 13.2943 59.9362 13.3751 60.0892C14.1717 61.598 15.7571 63.9595 16.6288 62.9563C17.5492 61.8971 24.299 58.267 27.5588 56.5843L28.4045 56.008C30.4365 54.6231 33.0351 49.9112 30.579 50.0302C28.9012 50.1115 27.8565 52.0023 26.3753 52.7946C26.0316 52.9785 25.7203 53.1562 25.4915 53.3073C25.0693 53.5859 24.2931 53.6202 23.538 53.5597C22.926 53.5107 22.7792 52.7564 23.2906 52.4167C23.3434 52.3817 23.4002 52.3542 23.4603 52.3339C24.2057 52.0826 25.7129 51.4957 26.4442 50.924C27.0987 50.4124 28.2328 50.3035 28.9274 50.3143C29.1256 50.3174 29.3232 50.2767 29.4965 50.1804L29.6263 50.1082C29.9536 49.9263 30.1145 49.5447 30.0164 49.1833C29.9149 48.8095 29.564 48.5589 29.1774 48.5844L25.7711 48.8084C25.2109 48.8452 24.9216 48.1519 25.3417 47.7796C25.4388 47.6936 25.5616 47.642 25.691 47.6328L28.5142 47.4337C29.6174 47.3558 30.7255 47.4837 31.782 47.8109L36.988 49.4228C37.7185 49.649 38.2335 50.3028 38.2822 51.066L38.487 54.2712C38.5199 54.7867 39.1664 54.9963 39.4956 54.5982L40.919 52.3679C41.216 51.9025 41.5478 51.4601 41.9114 51.0446C42.8797 49.9383 44.2265 49.2348 45.2606 48.1898C45.317 48.1328 45.3618 48.0783 45.3921 48.0276C45.7022 47.5069 44.7778 47.3159 44.1717 47.3159H42.6236C42.2129 47.3159 41.9274 47.7512 41.5586 47.9318C40.9991 48.2058 40.3151 48.512 40.0349 48.5407C39.8303 48.5616 39.7598 48.4701 39.7529 48.3514C39.7405 48.1378 39.7872 47.914 39.701 47.7182L39.5732 47.4276C39.4265 47.0943 39.6707 46.7201 40.0349 46.7201H42.9472L45.1777 46.5045C45.8222 46.4422 46.5028 46.8561 47.1358 46.7201C47.5074 46.6153 48.3331 46.3195 48.6639 45.9753C48.9947 45.631 50.911 45.6001 51.8278 45.6277C52.3851 45.6884 53.4997 45.9289 53.4997 46.4056C53.4997 47.0014 51.9177 47.9283 51.6121 48.0276C51.3065 48.1269 48.8436 48.0276 47.8729 47.6469C47.5719 47.5289 47.317 47.5214 47.1097 47.5713C46.6044 47.6928 46.2595 48.1749 45.8223 48.456L44.8511 49.0803C44.572 49.2597 44.4033 49.5687 44.4033 49.9005C44.4033 50.1731 44.2892 50.4332 44.0887 50.6178L43.4698 51.1876C43.1265 51.5037 42.8647 51.8981 42.7069 52.3373L42.4895 52.9419C42.2457 53.6202 41.8711 54.2441 41.387 54.7782L40.996 55.2095C40.3598 55.9114 39.848 56.7158 39.4648 57.5822Z" fill="#8F8F8F"/>
</g>
<path d="M11.5772 32.6023V35.4702C11.5772 35.6128 11.6457 35.7467 11.7614 35.8301C12.0855 36.0639 12.5293 35.7835 12.4574 35.3904L12.1965 33.9638C12.1166 33.5268 12.3267 33.0879 12.7172 32.8761L14.4257 31.9491C14.8594 31.7139 15.3356 31.5675 15.8265 31.5186L18.0033 31.3017C18.7994 31.2224 19.598 31.4249 20.2601 31.8741C20.7814 32.1554 20.7814 34.5884 20.2601 35.6973C19.9731 36.3078 18.7898 37.2303 17.7205 37.9619C16.8815 38.536 15.9274 38.9113 14.9382 39.1451L14.2248 39.3138C12.2248 39.7866 10.1195 39.4739 8.34321 38.4403C7.56842 37.9894 6.66622 37.6994 6.03508 37.0628C5.05499 36.0743 4.22422 34.2934 3.56542 33.1721C3.34209 32.792 2.97621 32.5257 2.55912 32.3829L1.6462 32.0703C0.905917 31.8167 0.555636 30.9715 0.89959 30.2687C0.958644 30.148 0.998639 30.0189 1.01815 29.886L1.21799 28.5245C1.42243 27.1317 1.91507 25.7968 2.66447 24.6051L2.71728 24.5211C4.2332 22.1105 6.6557 20.4115 9.43856 19.8073L13.0154 19.0307C13.8782 18.8707 15.7694 18.5375 16.431 18.4845C16.9404 18.4437 18.5482 18.8321 19.7971 19.169C20.4509 19.3454 21.0647 19.6421 21.6201 20.0295L23.0514 21.028C23.8148 21.5606 24.7895 21.6884 25.6644 21.3706C26.0364 21.2355 26.3753 21.0238 26.6664 20.7557C27.2036 20.2611 27.9136 19.6359 28.2419 19.4445C28.4388 19.3296 28.6682 19.261 28.8821 19.2219C29.2778 19.1496 29.6809 19.0561 30.013 18.829C30.0905 18.776 30.1722 18.7291 30.2571 18.6889L30.2945 18.6712C30.9794 18.3469 31.7936 18.3622 32.5276 18.5504C32.7922 18.6182 33.1012 18.6865 33.4552 18.7493C33.9442 18.8361 34.3092 18.9796 34.5749 19.1357C35.0811 19.4332 35.181 20.0576 35.181 20.6447V23.633C35.181 23.9874 35.381 24.3115 35.6977 24.4705C35.7486 24.4961 35.8025 24.5153 35.8536 24.5408C36.1001 24.6639 36.5033 25.0738 36.6192 25.9985C36.8133 27.5472 35.2105 28.838 35.1815 30.3985C35.1812 30.416 35.181 30.4334 35.181 30.4507C35.181 31.5099 35.9361 31.8906 36.4574 33.0657C36.4687 33.0911 36.4794 33.1166 36.4898 33.1424C37.1303 34.7418 36.4574 36.5781 36.4574 38.301V43.2941C36.4574 43.8707 37.5678 44.0412 37.7571 43.4966C38.6549 40.9129 39.6573 38.1804 39.6573 37.7592C39.6573 37.0707 40.7599 32.5251 41.509 30.4507L46.4527 20.2389L49.7629 13.3024C49.8505 13.1188 49.8348 12.9026 49.7214 12.7337C49.6018 12.5554 49.3928 12.4585 49.1794 12.4824L43.8458 13.0792C43.2957 13.1408 42.7899 13.3643 42.6835 13.9075C42.6037 14.3151 42.5505 14.9225 42.5696 15.8033C42.6183 18.0452 40.0817 19.2452 38.1653 18.0807C37.9922 17.9755 37.8864 17.8666 37.8776 17.7563C37.8769 17.7475 37.8761 17.7385 37.8751 17.7293C37.7075 16.1596 36.2313 15.0965 34.7856 14.4627C33.9871 14.1126 33.7468 13.4493 33.7292 12.8789C33.7139 12.3844 34.0482 11.973 34.4489 11.6828C34.9204 11.3413 35.5012 11.1857 36.0803 11.2456L37.7653 11.4201C39.0029 11.5482 40.2519 11.3343 41.3764 10.8016L41.509 10.7388L42.6239 10.3582C43.2695 10.1379 43.9339 9.97758 44.6089 9.87919L46.2183 9.64458C47.321 9.48384 48.4466 9.65047 49.4554 10.1238L50.9892 10.8434C51.4101 11.0409 51.8934 11.0584 52.3275 10.8919C52.5896 10.7913 52.8228 10.6279 53.0067 10.4158L57.6703 5.03839C58.2144 4.52024 58.8698 4.1333 59.5863 3.90714L64.9589 2.21124C66.0296 1.87326 67.1987 2.10292 68.062 2.82081C68.6099 3.27643 68.9956 3.89716 69.1614 4.59019L69.3919 5.55364C69.6619 6.68221 69.6138 7.86352 69.253 8.96641L69.0942 9.45167C68.9689 9.83474 68.8187 10.2101 68.6111 10.5555C68.0697 11.4561 67.0279 12.9129 65.6162 14.1482C64.6222 15.0179 63.71 15.4611 63.0122 15.6658C62.2649 15.885 61.4679 15.8033 60.6892 15.8033H58.9467C57.8861 15.8033 57.6524 15.3895 57.2569 15.1247C56.8614 14.8599 55.2434 14.2972 54.5064 14.4627C53.7693 14.6282 52.9424 16.1674 52.7266 16.8294C52.5109 17.4915 51.7199 19.61 50.8211 20.2389C50.2429 20.6434 48.6807 23.4863 47.5549 25.6631C47.0681 26.6044 46.7696 27.6297 46.6513 28.6828C46.5201 29.8503 46.1636 30.9812 45.6016 32.0129L44.5778 33.8921C43.9252 35.09 43.4147 36.3682 43.2316 37.72C43.1503 38.3199 43.091 38.9472 43.091 39.4874C43.091 40.3428 42.6922 41.4218 42.2932 42.264C41.96 42.967 41.5926 43.6549 41.2939 44.3733L39.2757 49.2274C38.789 50.3979 38.45 51.6241 38.287 52.8812C37.9895 55.1759 37.6439 58.18 37.6439 59.4972C37.6439 60.4724 37.8939 61.2979 38.1831 61.9073C38.5239 62.6256 39.2296 63.1083 39.5799 63.822C39.7046 64.0761 39.7959 64.3498 39.861 64.6274C40.1763 65.9719 39.5351 67.303 38.7468 68.4369L37.9994 69.5121C37.7651 69.8492 37.4621 70.133 37.1104 70.3449C36.515 70.7036 35.8064 70.8369 35.1209 70.7221C34.41 70.6031 33.7629 70.2263 33.3111 69.6648L33.1467 69.4604C33.0051 69.2845 32.8803 69.0958 32.7739 68.8967L30.5797 64.793C30.2647 64.2038 30.2644 63.4962 30.5789 62.9067L32.2436 59.397C32.6931 58.4492 32.8427 57.3869 32.6725 56.3519L30.7854 44.879C30.5633 43.5288 28.7408 43.256 28.1331 44.482C28.0507 44.6483 27.9356 44.796 27.8085 44.9313C27.4875 45.2731 26.9056 45.9784 26.1566 47.1173C25.8629 47.5637 25.6592 47.9721 25.5213 48.3333C25.1399 49.3318 25.0796 50.485 24.7544 51.5032C24.7111 51.6385 24.5975 51.7992 24.4478 51.966C23.7492 52.7443 22.957 53.4487 22.3994 54.3334L21.0509 57.2436C20.8356 57.7082 20.5847 58.1553 20.3004 58.5811C19.6905 59.4945 18.9332 60.3002 18.0592 60.9653L18.0309 60.9868C17.8212 61.1578 17.4593 61.5628 17.6894 61.8144C18.3419 62.5277 16.9699 63.4737 16.1495 63.9851L15.0647 64.6611L14.1529 65.2823C13.5631 65.6842 12.9453 66.0434 12.3044 66.3572L11.5772 66.7134L8.68769 67.6951C8.60082 67.7246 8.51715 67.7629 8.43798 67.8093L7.6047 68.2975C7.37169 68.434 7.07178 68.3433 6.95341 68.1006L6.92463 68.0416C6.84008 67.8682 6.89574 67.659 7.0553 67.5506C7.28315 67.3958 7.28157 67.0594 7.05227 66.9068L5.10405 65.6095C4.82215 65.4218 4.59363 65.1643 4.44071 64.8621L3.48884 62.9812C2.35537 60.7414 2.10852 58.1564 2.7976 55.7426L2.88987 55.4194C3.09591 54.6976 3.38117 54.0009 3.74043 53.3418L4.03688 52.798C5.03795 50.9617 6.67762 49.5561 8.64543 48.8475L9.47851 48.5475C9.85607 48.4116 10.2543 48.342 10.6556 48.342C10.9571 48.342 11.2633 48.3775 11.5131 48.5463C11.8525 48.7757 12.3152 49.2096 12.7637 49.9475C13.6086 51.3377 13.1592 52.9597 13.267 53.7376C13.4171 54.8199 12.2567 55.5284 11.2778 56.014L11.1598 56.0725C10.0852 56.6057 8.70895 56.6326 7.83535 57.4549C7.69457 57.5874 7.58661 57.7479 7.53235 57.9415C6.60331 61.2559 13.0622 60.897 14.9606 58.0256L17.4018 54.3334L22.7055 45.8474C23.3736 44.7784 23.9428 43.6346 24.1372 42.389C24.249 41.6727 24.3026 40.9072 24.1971 40.2984C23.9274 38.7426 25.2757 34.4063 25.3116 34.1415C25.3476 33.8767 27.6127 27.455 27.8824 25.9985C28.0981 24.8334 26.9655 24.531 26.3723 24.5255C25.9349 24.5145 24.9413 24.4991 24.4667 24.5255C23.8735 24.5586 22.2376 24.2111 21.8421 24.1614C21.5257 24.1217 19.2414 23.0746 18.1388 22.556L16.6702 21.9102C16.0779 21.6498 15.3978 21.6818 14.8326 21.9968C14.5251 22.1681 14.1788 22.2581 13.8268 22.2581H12.628C12.2517 22.2581 11.8732 22.2824 11.5155 22.399C11.3839 22.4419 11.2441 22.4942 11.1098 22.556C10.7579 22.718 9.63528 24.2609 9.0248 25.1456C8.95275 25.2501 8.86218 25.3394 8.77497 25.4315C8.20324 26.0356 7.65338 27.6356 7.37097 28.6416C7.34316 28.7406 7.51935 28.928 7.62224 28.928C8.24998 28.928 8.87232 29.0601 9.42874 29.3507C9.83809 29.5645 10.3074 29.8251 10.7143 30.0866C11.4765 30.5765 11.6071 31.9678 11.5772 32.6023Z" fill="#34313E"/>
<path d="M37.4432 16.1316L37.9116 17.2543C38.0217 17.5182 38.2796 17.6901 38.5655 17.6901C38.8374 17.6901 39.0853 17.5345 39.2035 17.2896L39.6164 16.4343C39.7385 16.1814 39.8115 15.9077 39.8316 15.6277L39.879 14.9681C40.013 13.1031 41.3945 11.5663 43.2348 11.2353L46.4527 11.0367H48.785C49.1768 11.0367 49.5499 11.2041 49.8104 11.4967C50.2 11.9345 50.2688 12.5713 49.9816 13.0821L49.4009 14.1151L45.0685 21.745L41.1854 30.5665L39.4416 35.1346C39.2978 35.5814 39.0102 36.7234 39.0102 37.7165C39.0102 38.7095 37.7638 42.2017 37.1406 43.8237L35.9806 46.5886C35.8888 46.8074 35.8029 47.0279 35.7169 47.249L35.6894 47.3195C35.3934 48.079 34.6979 49.7292 34.3362 49.4675C33.9386 49.1799 33.8922 40.5204 33.8872 37.9392C33.8863 37.4571 33.9146 36.9802 33.9403 36.4988C34.0005 35.375 33.9813 33.8316 33.5991 33.3305C33.0059 32.5526 32.88 32.2051 32.3767 30.9141C32.2695 30.6393 32.2313 30.3452 32.2392 30.0515C32.2705 28.8847 33.4539 27.3554 33.5991 26.1971C33.7979 24.6112 32.1025 22.7428 32.2187 21.1486L32.3081 19.9217C32.3489 19.3619 32.0216 18.8404 31.4997 18.6337C31.084 18.469 30.6127 18.5323 30.2551 18.8007L29.9835 19.0046C29.7749 19.1612 29.5211 19.2458 29.2603 19.2458C28.9419 19.2458 28.6366 19.3718 28.4108 19.5963L27.971 20.0336C27.3413 20.6598 26.4454 20.9003 25.5577 20.8747C25.1372 20.8625 24.7729 20.8986 24.6465 21.0333C24.305 21.3974 23.6937 21.745 22.4713 21.745C21.2489 21.745 18.8579 20.3216 18.3546 20.0072C16.736 18.996 14.7916 18.557 12.8917 18.7375C11.8261 18.8387 10.73 18.9277 10.0132 18.981C9.45593 18.981 8.00698 19.1134 6.66948 19.6431C4.99762 20.3051 4.6201 21.4471 3.95495 21.745C3.42283 21.9833 2.21118 24.2055 1.67186 25.2869C1.4861 25.6786 1.10379 26.6374 1.06065 27.3392C1.03034 27.832 0.684961 28.517 0.365769 29.0397C0.1419 29.4064 0 29.8217 0 30.2512C0 30.6819 0.137563 31.1012 0.392631 31.4482L1.61867 33.1159C1.86949 33.4571 2.08777 33.8208 2.30881 34.1819C3.92292 36.8195 6.33178 37.7851 7.73013 38.8088C8.20434 39.156 8.7907 39.4014 9.37562 39.5716C10.8039 39.987 12.2828 39.452 13.493 38.5872C14.7349 37.6997 15.6611 36.4348 16.063 34.9621C16.1776 34.5421 16.2967 34.0912 16.413 33.6284C16.5805 32.9621 16.4449 32.4979 16.1772 32.1818C15.5034 31.386 14.2767 31.8888 13.4116 32.471L12.2321 33.2648C12.1685 33.3076 12.0935 33.3305 12.0168 33.3305C11.8038 33.3305 11.6311 33.5032 11.6311 33.7162V33.9441C11.6311 34.0517 11.6599 34.1572 11.7116 34.2516C12.1189 34.9952 12.6732 36.2892 12.1345 36.4752C11.7229 36.6173 11.5076 37.186 11.4097 37.6779C11.3524 37.9653 11.1133 38.1964 10.8203 38.1964C10.5288 38.1964 10.2577 37.9584 10.0487 37.7553C9.69385 37.4103 9.01198 37.0694 8.30812 36.7862C7.33075 36.393 6.60139 35.5497 6.63135 34.4967C6.63878 34.2355 6.651 33.9461 6.66948 33.6284C6.72503 32.6738 6.60478 31.8463 6.46409 31.2705C6.34949 30.8014 6.02007 30.4291 5.61162 30.1715L4.61707 29.5442C4.23009 29.3002 3.72558 29.3573 3.40298 29.6817C3.05197 30.0347 2.49018 30.0681 2.13116 29.7232C2.08584 29.6797 2.04038 29.6352 1.99545 29.5901C1.67906 29.2723 2.39095 27.957 2.78644 27.3392L4.24617 24.4405C4.42912 24.0772 5.09342 23.8388 5.12346 23.4332C5.14856 23.0942 5.62118 22.5259 6.14543 22.0001C6.80171 21.3419 7.71698 21.0333 8.64645 21.0333H9.17317C9.71781 21.0333 10.2471 20.8529 10.6784 20.5202C11.1096 20.1876 11.6389 20.0072 12.1836 20.0072H12.3505C12.6835 20.0072 13.0141 20.0635 13.3283 20.1737L14.7412 20.6692L15.5802 21.0941C17.1436 21.8857 18.6603 23.0401 20.368 23.4332C21.7282 23.7463 23.4663 23.9869 24.4972 24.1074C24.822 24.1453 25.1506 24.1233 25.469 24.0487L26.5473 23.796C26.8095 23.7346 27.0851 23.8049 27.2858 23.9844C27.4802 24.1582 27.581 24.4138 27.5576 24.6736L27.3064 27.4602C27.271 27.8531 27.1993 28.2419 27.0923 28.6216L25.5454 34.1084L25.043 35.5883C24.7791 36.3658 24.5795 37.1637 24.4462 37.9738L24.1971 39.4874L23.8584 41.681C23.752 42.3703 23.4069 43.0003 22.8834 43.4611C22.611 43.7008 22.3847 43.9883 22.2157 44.3095L22.1659 44.4042C21.9989 44.7215 21.883 45.0625 21.807 45.413C21.6689 46.05 21.4558 46.8853 21.2489 47.2662C21.179 47.3949 21.099 47.54 21.0156 47.6901C20.5895 48.4569 20.0856 49.1775 19.524 49.8515L18.3546 51.255L14.5794 56.7829C14.1899 57.2794 13.3533 58.3221 13.1232 58.5207C12.8356 58.769 12.2424 60.7882 12.0806 61.2351C12.0159 61.4136 11.6496 61.8667 11.2176 62.3607C10.4033 63.2921 9.42618 64.0625 8.38965 64.738C7.80003 65.1222 7.29095 65.4654 7.20879 65.5548C6.70521 66.1027 5.7938 65.4783 5.38181 64.8585C4.03748 62.8363 2.2276 59.847 2.33702 58.918C2.40498 58.3409 2.71387 57.3886 3.0622 56.4562C3.48029 55.337 4.86725 54.9991 5.79915 55.7468L5.89437 55.8232C6.80516 56.5539 8.16333 56.1921 8.58989 55.1051C8.68657 54.8587 8.72744 54.5939 8.6959 54.3311C8.54421 53.0676 8.09863 50.9556 7.20879 50.1957C6.21646 49.3483 4.84182 50.5488 4.27854 51.255C3.68529 52.259 2.33342 54.6479 1.67186 56.1705C1.47704 56.6189 1.33772 57.0688 1.23995 57.4951C0.894276 59.0024 1.3886 60.5271 2.04403 61.9278C2.96947 63.9054 4.03196 66.1364 4.27854 66.5148C4.53884 66.9142 5.41536 67.483 6.11847 67.8877C6.50087 68.1078 6.8784 68.5119 7.20879 68.2195C7.71267 67.7736 9.28727 67.2958 10.0894 67.0637C10.3258 66.9953 10.5564 66.9086 10.7787 66.8032L12.5598 65.9585C13.0796 65.7119 13.4109 65.1881 13.4109 64.6129V64.1403C13.4109 63.7619 13.6595 63.4285 14.0221 63.3205C15.2357 62.8696 16.1893 61.339 16.7559 60.0819C17.0973 59.3244 17.3914 58.5451 17.7693 57.8051C18.424 56.523 19.2235 54.9805 19.3972 54.7306C19.6849 54.3169 20.2062 54.5982 20.8354 53.9031C21.4646 53.208 21.3208 51.255 21.5904 50.1957C21.6587 49.9276 21.7791 49.6601 21.9227 49.4098C22.4376 48.5122 23.1876 47.7685 23.7895 46.9268C24.4273 46.035 25.0979 45.0994 25.2577 44.8829C25.4141 44.6712 25.6524 43.7348 25.8541 42.8232C26.0569 41.9062 26.1649 40.9683 26.3071 40.0399C26.4179 39.3166 26.5679 38.4365 26.7089 37.6409C26.8749 36.7034 27.2211 35.8195 27.8824 35.1346C28.17 34.8366 28.2419 37.3027 28.2959 37.7165C28.5032 39.3073 29.331 40.7682 29.266 42.3711C29.1758 44.5985 29.0768 47.6206 29.1767 48.1931C29.3385 49.1199 29.5722 49.0797 30.4172 51.8342C31.2621 54.5888 29.3645 62.2374 30.0037 63.7342C30.6429 65.231 31.0178 66.0036 31.7475 67.1342C32.4085 68.5628 32.8715 69.2125 33.5587 70.028C33.7983 70.3124 34.0884 70.5944 34.4275 70.7471C35.402 71.1859 36.5905 70.7074 37.1603 69.8032C37.2018 69.7374 37.2377 69.6725 37.2664 69.6097C37.7033 68.6545 37.1135 67.5897 36.5474 66.705C35.8671 65.6416 35.1018 64.3635 34.8036 63.6018C34.6213 63.1364 34.557 62.7546 34.5574 62.4538C34.5581 61.9038 34.8036 61.3374 34.8036 60.7874C34.8036 60.4618 34.7154 60.1401 34.6748 59.817C34.4836 58.2947 35.3608 54.7958 35.3608 54.2672C35.3608 53.7905 35.9121 52.0604 36.1878 51.255L38.0934 47.2662L39.9685 43.2168C40.3476 42.3983 40.652 41.5473 40.8781 40.6741L41.1854 39.4874C41.3232 38.7481 41.6169 37.1107 41.6888 36.4752C41.7787 35.6807 42.0843 34.3898 42.2101 34.1084C42.3359 33.827 44.2235 31.0465 44.4213 30.5665C44.619 30.0866 44.6909 28.1501 44.7808 26.9254C44.8707 25.7006 49.1492 19.4113 49.4009 19.2458C49.5184 19.1686 49.9846 18.4373 50.4691 17.641C51.1021 16.601 51.3981 15.356 52.0789 14.3466C52.163 14.222 52.2499 14.1045 52.3366 13.9957L52.3469 13.9827C52.7195 13.5146 53.1638 12.9562 53.7549 12.8786C54.4471 12.7878 55.0514 13.1814 55.676 13.4932C56.0167 13.6633 56.4601 13.8711 57.0232 14.1151C58.1232 14.5917 59.831 14.5645 61.0764 14.4327C61.7806 14.3581 62.471 14.1786 63.1206 13.8968C66.1918 12.5646 67.2727 10.6321 68.5465 8.91817C69.1542 8.10041 69.5801 7.07086 69.8075 6.16479C70.107 4.97159 69.9439 3.66759 69.3085 2.61419C68.8792 1.90253 68.3041 1.24867 67.8094 1.05659C66.2399 0.447131 64.6476 1.96768 63.0098 2.35812C62.902 2.38381 62.7938 2.40787 62.686 2.43029L61.5795 2.75232C60.4633 3.07719 59.3831 3.5215 58.3887 4.12368C58.266 4.19796 58.1504 4.26902 58.0479 4.33362C57.5666 4.63678 55.1263 7.59751 53.5479 9.55849C53.1752 10.0214 52.6142 10.2919 52.0199 10.2919C51.4424 10.2919 50.892 10.0332 50.5212 9.59039C50.1642 9.16416 49.6411 8.90933 49.0851 8.91119C48.8622 8.91194 48.5966 8.91403 48.2863 8.91817C47.294 8.93141 45.5958 9.36505 44.8707 9.5802C43.8101 9.99949 41.5521 10.8778 41.0056 11.0367C40.4591 11.1956 39.975 11.2353 39.8012 11.2353H35.9456C35.5624 11.2353 35.1857 11.335 34.8526 11.5245C34.5371 11.7041 34.2572 11.9534 34.1219 12.2902C33.952 12.7133 33.8652 13.2158 34.1923 13.4531C34.5578 13.7182 35.6432 14.4321 36.4815 14.9782C36.9105 15.2577 37.2461 15.659 37.4432 16.1316Z" fill="#587BF8"/>
<path d="M64.5556 8.03155C62.1107 8.72668 63.2723 9.81903 62.1107 9.81903C60.9491 9.81903 60.0074 9.01874 60.0074 8.03155C60.0074 7.04435 59.3602 7.33641 62.1107 6.24407C64.8612 5.15172 64.5556 7.04435 64.5556 8.03155Z" fill="white"/>
<path d="M51.6619 46.9728C50.6545 47.0906 51.1331 47.2759 50.6545 47.2759C50.1758 47.2759 49.7878 47.1402 49.7878 46.9728C49.7878 46.8054 49.5211 46.8549 50.6545 46.6697C51.7878 46.4845 51.6619 46.8054 51.6619 46.9728Z" fill="#DCD7D7"/>
<defs>
<filter id="filter0_d_3_70" x="2.85818" y="45.62" width="54.6415" height="30.8602" filterUnits="userSpaceOnUse" color-interpolation-filters="sRGB">
<feFlood flood-opacity="0" result="BackgroundImageFix"/>
<feColorMatrix in="SourceAlpha" type="matrix" values="0 0 0 0 0 0 0 0 0 0 0 0 0 0 0 0 0 0 127 0" result="hardAlpha"/>
<feOffset dy="4"/>
<feGaussianBlur stdDeviation="2"/>
<feComposite in2="hardAlpha" operator="out"/>
<feColorMatrix type="matrix" values="0 0 0 0 0 0 0 0 0 0 0 0 0 0 0 0 0 0 0.25 0"/>
<feBlend mode="normal" in2="BackgroundImageFix" result="effect1_dropShadow_3_70"/>
<feBlend mode="normal" in="SourceGraphic" in2="effect1_dropShadow_3_70" result="shape"/>
</filter>
</defs>
</svg>
