<svg width="88" height="20" viewBox="0 0 88 20" fill="none" xmlns="http://www.w3.org/2000/svg">
<path d="M19.7045 5.875V4.36364H28.7102V5.875H25.0795V16H23.3295V5.875H19.7045ZM31.456 16L28.8878 7.27273H30.6435L32.3537 13.6818H32.4389L34.1548 7.27273H35.9105L37.6151 13.6534H37.7003L39.3991 7.27273H41.1548L38.5923 16H36.8594L35.0866 9.69886H34.956L33.1832 16H31.456ZM42.767 16V7.27273H44.4659V16H42.767ZM43.625 5.92614C43.3295 5.92614 43.0758 5.82765 42.8636 5.63068C42.6553 5.42992 42.5511 5.19129 42.5511 4.91477C42.5511 4.63447 42.6553 4.39583 42.8636 4.19886C43.0758 3.99811 43.3295 3.89773 43.625 3.89773C43.9205 3.89773 44.1723 3.99811 44.3807 4.19886C44.5928 4.39583 44.6989 4.63447 44.6989 4.91477C44.6989 5.19129 44.5928 5.42992 44.3807 5.63068C44.1723 5.82765 43.9205 5.92614 43.625 5.92614ZM50.8253 7.27273V8.63636H46.0582V7.27273H50.8253ZM47.3366 5.18182H49.0355V13.4375C49.0355 13.767 49.0848 14.0152 49.1832 14.1818C49.2817 14.3447 49.4086 14.4564 49.5639 14.517C49.723 14.5739 49.8954 14.6023 50.081 14.6023C50.2173 14.6023 50.3366 14.5928 50.4389 14.5739C50.5412 14.5549 50.6207 14.5398 50.6776 14.5284L50.9844 15.9318C50.8859 15.9697 50.7457 16.0076 50.5639 16.0455C50.3821 16.0871 50.1548 16.1098 49.8821 16.1136C49.4351 16.1212 49.0185 16.0417 48.6321 15.875C48.2457 15.7083 47.9332 15.4508 47.6946 15.1023C47.456 14.7538 47.3366 14.3163 47.3366 13.7898V5.18182ZM56.7784 7.27273V8.63636H52.0114V7.27273H56.7784ZM53.2898 5.18182H54.9886V13.4375C54.9886 13.767 55.0379 14.0152 55.1364 14.1818C55.2348 14.3447 55.3617 14.4564 55.517 14.517C55.6761 14.5739 55.8485 14.6023 56.0341 14.6023C56.1705 14.6023 56.2898 14.5928 56.392 14.5739C56.4943 14.5549 56.5739 14.5398 56.6307 14.5284L56.9375 15.9318C56.839 15.9697 56.6989 16.0076 56.517 16.0455C56.3352 16.0871 56.108 16.1098 55.8352 16.1136C55.3883 16.1212 54.9716 16.0417 54.5852 15.875C54.1989 15.7083 53.8864 15.4508 53.6477 15.1023C53.4091 14.7538 53.2898 14.3163 53.2898 13.7898V5.18182ZM62.3253 16.1761C61.4654 16.1761 60.7249 15.9924 60.1037 15.625C59.4863 15.2538 59.009 14.733 58.6719 14.0625C58.3385 13.3883 58.1719 12.5985 58.1719 11.6932C58.1719 10.7992 58.3385 10.0114 58.6719 9.32955C59.009 8.64773 59.4787 8.11553 60.081 7.73295C60.687 7.35038 61.3954 7.15909 62.206 7.15909C62.6984 7.15909 63.1757 7.24053 63.6378 7.40341C64.0999 7.56629 64.5147 7.82197 64.8821 8.17045C65.2495 8.51894 65.5393 8.97159 65.7514 9.52841C65.9635 10.0814 66.0696 10.7538 66.0696 11.5455V12.1477H59.1321V10.875H64.4048C64.4048 10.428 64.3139 10.0322 64.1321 9.6875C63.9503 9.33902 63.6946 9.06439 63.3651 8.86364C63.0393 8.66288 62.6567 8.5625 62.2173 8.5625C61.7401 8.5625 61.3234 8.67992 60.9673 8.91477C60.6151 9.14583 60.3423 9.44886 60.1491 9.82386C59.9598 10.1951 59.8651 10.5985 59.8651 11.0341V12.0284C59.8651 12.6117 59.9673 13.108 60.1719 13.517C60.3802 13.9261 60.67 14.2386 61.0412 14.4545C61.4124 14.6667 61.8461 14.7727 62.3423 14.7727C62.6643 14.7727 62.9579 14.7273 63.223 14.6364C63.4882 14.5417 63.7173 14.4015 63.9105 14.2159C64.1037 14.0303 64.2514 13.8011 64.3537 13.5284L65.9616 13.8182C65.8329 14.2917 65.6018 14.7064 65.2685 15.0625C64.9389 15.4148 64.5241 15.6894 64.0241 15.8864C63.5279 16.0795 62.9616 16.1761 62.3253 16.1761ZM67.9545 16V7.27273H69.5966V8.65909H69.6875C69.8466 8.18939 70.1269 7.82008 70.5284 7.55114C70.9337 7.27841 71.392 7.14205 71.9034 7.14205C72.0095 7.14205 72.1345 7.14583 72.2784 7.15341C72.4261 7.16098 72.5417 7.17045 72.625 7.18182V8.80682C72.5568 8.78788 72.4356 8.76705 72.2614 8.74432C72.0871 8.7178 71.9129 8.70455 71.7386 8.70455C71.3371 8.70455 70.9792 8.78977 70.6648 8.96023C70.3542 9.12689 70.108 9.35985 69.9261 9.65909C69.7443 9.95455 69.6534 10.2917 69.6534 10.6705V16H67.9545Z" fill="black"/>
<path d="M78 3.75H84.25V10M84.25 3.75L76.75 11.25L84.25 3.75Z" stroke="black" strokeWidth="2" strokeLinecap="round" strokeLinejoin="round"/>
<path d="M9 3.125C4.65117 3.125 1.125 6.65117 1.125 11C1.125 15.3488 4.65117 18.875 9 18.875C13.3488 18.875 16.875 15.3488 16.875 11C16.875 6.65117 13.3488 3.125 9 3.125ZM12.7846 9.06113C12.7898 9.14375 12.7898 9.22988 12.7898 9.31426C12.7898 11.8947 10.8246 14.8672 7.2334 14.8672C6.12598 14.8672 5.09941 14.5455 4.23457 13.9918C4.39277 14.0094 4.54395 14.0164 4.70566 14.0164C5.61973 14.0164 6.45996 13.707 7.12969 13.1832C6.27187 13.1656 5.55117 12.6031 5.30508 11.8297C5.60566 11.8736 5.87637 11.8736 6.18574 11.7945C5.74405 11.7048 5.34705 11.4649 5.06218 11.1156C4.77731 10.7664 4.62214 10.3292 4.62305 9.87852V9.85391C4.88145 9.9998 5.18555 10.0895 5.50371 10.1018C5.23625 9.92351 5.0169 9.68201 4.86512 9.39869C4.71334 9.11536 4.63381 8.79896 4.63359 8.47754C4.63359 8.11367 4.72852 7.78145 4.89902 7.49316C5.38928 8.09668 6.00105 8.59029 6.69457 8.94189C7.38808 9.2935 8.14783 9.49523 8.92441 9.53398C8.64844 8.20684 9.63984 7.13281 10.8316 7.13281C11.3941 7.13281 11.9004 7.36836 12.2572 7.74805C12.6984 7.66543 13.1203 7.5002 13.4965 7.27871C13.3506 7.73047 13.0447 8.11191 12.6387 8.35273C13.0324 8.31055 13.4121 8.20156 13.7637 8.04863C13.4982 8.43887 13.166 8.78516 12.7846 9.06113Z" fill="black"/>
</svg>
