<svg width="72" height="74" viewBox="0 0 72 74" fill="none" xmlns="http://www.w3.org/2000/svg">
<g filter="url(#filter0_d)">
<ellipse cx="36" cy="37" rx="32" ry="33" fill="#F5EA86"/>
</g>
<path d="M41.6039 35.792L43.6332 37.6328L41.1044 39.9268C40.9171 40.0967 40.9171 40.2666 41.1044 40.4365L41.6351 40.918C41.8224 41.0879 42.0098 41.0879 42.1971 40.918L44.7259 38.624L48.6283 42.1641L46.0995 44.458C45.9122 44.6279 45.9122 44.7884 46.0995 44.9395L46.6302 45.4492C46.8176 45.6191 47.0049 45.6191 47.1922 45.4492L49.721 43.1553L51.6878 44.9395C51.8751 45.1094 51.9688 45.3171 51.9688 45.5625C51.9688 45.8079 51.8751 46.0251 51.6878 46.2139L46.6927 50.7451C46.4846 50.915 46.2452 51 45.9746 51C45.7041 51 45.4751 50.915 45.2878 50.7451L35.2039 41.5977L29.3346 46.9219C29.0016 47.224 28.5958 47.375 28.1171 47.375C27.6384 47.375 27.2325 47.224 26.8995 46.9219L24.5268 44.7412C24.1938 44.4391 24.0273 44.0757 24.0273 43.6509C24.0273 43.2261 24.1938 42.8626 24.5268 42.5605L30.3961 37.2363L20.281 28.0605C20.0937 27.8906 20 27.6829 20 27.4375C20 27.1921 20.0937 26.9844 20.281 26.8145L25.2761 22.2549C25.4842 22.085 25.7236 22 25.9941 22C26.2647 22 26.4937 22.085 26.681 22.2549L28.6478 24.0391L26.119 26.333C25.9317 26.5029 25.9317 26.6729 26.119 26.8428L26.6498 27.3242C26.8371 27.4941 27.0244 27.4941 27.2117 27.3242L29.7405 25.0303L33.6429 28.5703L31.1141 30.8643C30.9268 31.0342 30.9268 31.2041 31.1141 31.374L31.6449 31.8555C31.8322 32.0254 32.0195 32.0254 32.2068 31.8555L34.7356 29.5615L36.7649 31.4307L46.6615 22.4531C46.9945 22.151 47.3951 22 47.8634 22C48.3317 22 48.7324 22.151 49.0654 22.4531L51.4693 24.6338C51.8023 24.9359 51.9688 25.2993 51.9688 25.7241C51.9688 26.1489 51.8023 26.5124 51.4693 26.8145L41.6039 35.792ZM22.0605 44.8828C22.1021 45.0339 22.175 45.1566 22.279 45.251L26.3376 48.9326C26.4416 49.027 26.5769 49.0931 26.7434 49.1309C26.6393 49.3197 26.5561 49.4329 26.4937 49.4707L20.999 51C20.4995 51 20.2081 50.9622 20.1249 50.8867C20.0416 50.8112 20 50.5469 20 50.0938L21.6859 45.1094C21.7275 45.0716 21.8524 44.9961 22.0605 44.8828Z" fill="#373737"/>
<defs>
<filter id="filter0_d" x="0" y="0" width="72" height="74" filterUnits="userSpaceOnUse" color-interpolation-filters="sRGB">
<feFlood flood-opacity="0" result="BackgroundImageFix"/>
<feColorMatrix in="SourceAlpha" type="matrix" values="0 0 0 0 0 0 0 0 0 0 0 0 0 0 0 0 0 0 127 0"/>
<feMorphology radius="1" operator="dilate" in="SourceAlpha" result="effect1_dropShadow"/>
<feOffset/>
<feGaussianBlur stdDeviation="1.5"/>
<feColorMatrix type="matrix" values="0 0 0 0 0 0 0 0 0 0 0 0 0 0 0 0 0 0 0.25 0"/>
<feBlend mode="normal" in2="BackgroundImageFix" result="effect1_dropShadow"/>
<feBlend mode="normal" in="SourceGraphic" in2="effect1_dropShadow" result="shape"/>
</filter>
</defs>
</svg>
