<svg width="70" height="72" viewBox="0 0 70 72" fill="none" xmlns="http://www.w3.org/2000/svg">
<g filter="url(#filter0_d)">
<ellipse cx="35" cy="36" rx="32" ry="33" fill="white"/>
</g>
<path d="M40.6039 34.792L42.6332 36.6328L40.1044 38.9268C39.9171 39.0967 39.9171 39.2666 40.1044 39.4365L40.6351 39.918C40.8224 40.0879 41.0098 40.0879 41.1971 39.918L43.7259 37.624L47.6283 41.1641L45.0995 43.458C44.9122 43.6279 44.9122 43.7884 45.0995 43.9395L45.6302 44.4492C45.8176 44.6191 46.0049 44.6191 46.1922 44.4492L48.721 42.1553L50.6878 43.9395C50.8751 44.1094 50.9688 44.3171 50.9688 44.5625C50.9688 44.8079 50.8751 45.0251 50.6878 45.2139L45.6927 49.7451C45.4846 49.915 45.2452 50 44.9746 50C44.7041 50 44.4751 49.915 44.2878 49.7451L34.2039 40.5977L28.3346 45.9219C28.0016 46.224 27.5958 46.375 27.1171 46.375C26.6384 46.375 26.2325 46.224 25.8995 45.9219L23.5268 43.7412C23.1938 43.4391 23.0273 43.0757 23.0273 42.6509C23.0273 42.2261 23.1938 41.8626 23.5268 41.5605L29.3961 36.2363L19.281 27.0605C19.0937 26.8906 19 26.6829 19 26.4375C19 26.1921 19.0937 25.9844 19.281 25.8145L24.2761 21.2549C24.4842 21.085 24.7236 21 24.9941 21C25.2647 21 25.4937 21.085 25.681 21.2549L27.6478 23.0391L25.119 25.333C24.9317 25.5029 24.9317 25.6729 25.119 25.8428L25.6498 26.3242C25.8371 26.4941 26.0244 26.4941 26.2117 26.3242L28.7405 24.0303L32.6429 27.5703L30.1141 29.8643C29.9268 30.0342 29.9268 30.2041 30.1141 30.374L30.6449 30.8555C30.8322 31.0254 31.0195 31.0254 31.2068 30.8555L33.7356 28.5615L35.7649 30.4307L45.6615 21.4531C45.9945 21.151 46.3951 21 46.8634 21C47.3317 21 47.7324 21.151 48.0654 21.4531L50.4693 23.6338C50.8023 23.9359 50.9688 24.2993 50.9688 24.7241C50.9688 25.1489 50.8023 25.5124 50.4693 25.8145L40.6039 34.792ZM21.0605 43.8828C21.1021 44.0339 21.175 44.1566 21.279 44.251L25.3376 47.9326C25.4416 48.027 25.5769 48.0931 25.7434 48.1309C25.6393 48.3197 25.5561 48.4329 25.4937 48.4707L19.999 50C19.4995 50 19.2081 49.9622 19.1249 49.8867C19.0416 49.8112 19 49.5469 19 49.0938L20.6859 44.1094C20.7275 44.0716 20.8524 43.9961 21.0605 43.8828Z" fill="#373737"/>
<defs>
<filter id="filter0_d" x="0" y="0" width="70" height="72" filterUnits="userSpaceOnUse" color-interpolation-filters="sRGB">
<feFlood flood-opacity="0" result="BackgroundImageFix"/>
<feColorMatrix in="SourceAlpha" type="matrix" values="0 0 0 0 0 0 0 0 0 0 0 0 0 0 0 0 0 0 127 0"/>
<feMorphology radius="1" operator="dilate" in="SourceAlpha" result="effect1_dropShadow"/>
<feOffset/>
<feGaussianBlur stdDeviation="1"/>
<feColorMatrix type="matrix" values="0 0 0 0 0 0 0 0 0 0 0 0 0 0 0 0 0 0 0.25 0"/>
<feBlend mode="normal" in2="BackgroundImageFix" result="effect1_dropShadow"/>
<feBlend mode="normal" in="SourceGraphic" in2="effect1_dropShadow" result="shape"/>
</filter>
</defs>
</svg>
