<svg width="100" height="100" viewBox="0 0 100 100" fill="none" xmlns="http://www.w3.org/2000/svg">
<g clip-path="url(#clip0)">
<path fill-rule="evenodd" clip-rule="evenodd" d="M54.8548 6.56586C53.1766 4.96305 50.9304 4.09256 48.6104 4.14587C46.2903 4.19919 44.0865 5.17195 42.4837 6.85016L6.22329 44.8164C4.62048 46.4946 3.74998 48.7408 3.8033 51.0608C3.85662 53.3808 4.82938 55.5847 6.50759 57.1875L44.4738 93.4479C46.152 95.0507 48.3982 95.9212 50.7182 95.8679C53.0382 95.8145 55.2421 94.8418 56.8449 93.1636L93.1053 55.1974C94.7081 53.5192 95.5786 51.273 95.5253 48.9529C95.472 46.6329 94.4992 44.4291 92.821 42.8263L54.8548 6.56586ZM45.345 64.031L32.6896 51.9442C32.27 51.5435 32.0268 50.9925 32.0135 50.4125C32.0002 49.8325 32.2178 49.2709 32.6185 48.8514L44.7053 36.196C45.106 35.7764 45.657 35.5332 46.237 35.5199C46.817 35.5066 47.3785 35.7242 47.7981 36.1249C48.2176 36.5256 48.4608 37.0766 48.4741 37.6566C48.4875 38.2366 48.2698 38.7981 47.8691 39.2177L39.4295 48.0543L65.0778 47.4618C65.6586 47.4485 66.2208 47.6664 66.6409 48.0676C67.061 48.4688 67.3045 49.0204 67.3179 49.6012C67.3312 50.1819 67.1133 50.7442 66.7121 51.1643C66.3109 51.5843 65.7592 51.8278 65.1785 51.8412L39.53 52.4275L48.3667 60.8671C48.7862 61.2678 49.0294 61.8188 49.0427 62.3988C49.0561 62.9788 48.8384 63.5403 48.4377 63.9599C48.037 64.3794 47.4861 64.6226 46.9061 64.636C46.3261 64.6493 45.7645 64.4317 45.345 64.031Z" fill="url(#paint0_diamond)"/>
</g>
<defs>
<radialGradient id="paint0_diamond" cx="0" cy="0" r="1" gradientUnits="userSpaceOnUse" gradientTransform="translate(49.6643 50.0069) rotate(133.684) scale(35)">
<stop offset="0.03125"/>
<stop offset="0.692708" stop-color="#424DB1"/>
<stop offset="1" stop-color="#EFCDFB"/>
</radialGradient>
<clipPath id="clip0">
<rect width="70" height="70" fill="white" transform="translate(48.5271 0.522461) rotate(43.6835)"/>
</clipPath>
</defs>
</svg>
