<svg width="100" height="100" viewBox="0 0 100 100" fill="none" xmlns="http://www.w3.org/2000/svg">
<g clip-path="url(#clip0)">
<path fill-rule="evenodd" clip-rule="evenodd" d="M45.2598 93.3046C46.9557 94.8888 49.2114 95.7343 51.5307 95.6553C53.85 95.5763 56.0429 94.5792 57.627 92.8833L93.4646 54.5178C95.0487 52.8219 95.8943 50.5662 95.8153 48.247C95.7363 45.9277 94.7392 43.7347 93.0433 42.1506L54.6778 6.31297C52.9819 4.72885 50.7262 3.88329 48.4069 3.96231C46.0876 4.04132 43.8947 5.03843 42.3106 6.73429L6.47295 45.0998C4.88883 46.7957 4.04327 49.0514 4.12228 51.3707C4.20129 53.69 5.1984 55.8829 6.89427 57.467L45.2598 93.3046ZM54.1325 35.7377L66.921 47.6836C67.345 48.0796 67.5943 48.6279 67.614 49.2077C67.6338 49.7875 67.4224 50.3514 67.0263 50.7754L55.0805 63.5639C54.6844 63.9879 54.1362 64.2372 53.5564 64.2569C52.9766 64.2767 52.4126 64.0653 51.9887 63.6692C51.5647 63.2732 51.3154 62.725 51.2957 62.1452C51.2759 61.5653 51.4873 61.0014 51.8833 60.5774L60.2245 51.6479L34.5844 52.5245C34.0038 52.5442 33.4392 52.3326 33.0147 51.936C32.5902 51.5395 32.3406 50.9906 32.3208 50.41C32.301 49.8295 32.5127 49.2648 32.9092 48.8403C33.3057 48.4158 33.8547 48.1662 34.4352 48.1465L60.0756 47.2761L51.146 38.9349C50.7221 38.5388 50.4728 37.9906 50.453 37.4108C50.4333 36.8309 50.6447 36.267 51.0407 35.8431C51.4367 35.4191 51.985 35.1698 52.5648 35.1501C53.1446 35.1303 53.7085 35.3417 54.1325 35.7377Z" fill="url(#paint0_diamond)"/>
</g>
<defs>
<radialGradient id="paint0_diamond" cx="0" cy="0" r="1" gradientUnits="userSpaceOnUse" gradientTransform="translate(49.9688 49.8088) rotate(-46.9512) scale(35)">
<stop offset="0.03125"/>
<stop offset="0.692708" stop-color="#424DB1"/>
<stop offset="1" stop-color="#EFCDFB"/>
</radialGradient>
<clipPath id="clip0">
<rect width="70" height="70" fill="white" transform="translate(51.6541 99.2776) rotate(-136.951)"/>
</clipPath>
</defs>
</svg>
