<svg width="66" height="17" viewBox="0 0 66 17" fill="none" xmlns="http://www.w3.org/2000/svg">
<path d="M2.36545 16.3843C2.21983 16.2368 1.78946 16.2327 1.07432 16.3717L0.951947 16.4049C0.776703 16.432 0.618089 16.4141 0.476106 16.3511C0.334122 16.288 0.269109 16.2037 0.281066 16.0979C0.262373 15.8553 0.625859 15.6715 1.37152 15.5465L2.10264 15.4191L2.19814 15.121C2.23907 14.8974 2.29228 14.5398 2.35778 14.0479C2.37676 13.8655 2.42789 13.5554 2.51119 13.1175C2.65998 12.1878 2.73788 11.6846 2.7449 11.6079C2.77388 11.4901 2.81338 11.2573 2.86341 10.9096C2.91345 10.5618 2.94971 10.2776 2.97219 10.0569C3.19856 8.65235 3.26881 7.94729 3.18295 7.9417C3.08928 7.94676 2.8385 8.00449 2.43059 8.11489C2.03048 8.21464 1.8095 8.28192 1.76767 8.31673C1.74571 8.35791 1.70245 8.3835 1.63789 8.3935C1.58255 8.40207 1.51974 8.3929 1.44946 8.36601C1.37776 8.32989 1.3284 8.28559 1.30138 8.23311C1.28644 8.19764 1.27397 8.14763 1.26397 8.08307C1.25398 8.0185 1.27379 7.96349 1.32342 7.91802C1.41202 7.8193 1.61909 7.69278 1.94464 7.53847C2.27799 7.37351 2.60322 7.24759 2.92032 7.1607C3.07426 7.11796 3.22606 7.0614 3.37571 6.991C3.53316 6.90995 3.64768 6.8261 3.71926 6.73945C3.90295 6.64489 4.06008 6.59223 4.19063 6.58145C4.26234 6.61757 4.42271 6.61634 4.67174 6.57777C4.88388 6.54492 5.04457 6.51531 5.15382 6.48894C5.48015 6.40063 5.75861 6.33861 5.98919 6.3029C6.16443 6.27576 6.29181 6.27492 6.37131 6.30039C6.46003 6.32442 6.53388 6.37438 6.59285 6.45025C6.6526 6.59211 6.68605 6.68609 6.69319 6.73221C6.72033 6.90745 6.63173 7.00618 6.42739 7.02838C6.2763 7.08956 5.90243 7.1758 5.30577 7.28709C4.65948 7.44385 4.31899 7.5627 4.2843 7.64363C4.24533 7.69689 4.21486 7.74411 4.19291 7.78528C4.18017 7.82504 4.16283 7.8655 4.14087 7.90668C4.15581 7.94214 4.15132 8.06562 4.12741 8.2771C4.11129 8.47794 4.08205 8.68552 4.03969 8.89987L3.90422 9.67169C3.77024 10.5141 3.68064 11.0333 3.63543 11.2292C3.59515 11.396 3.57403 11.5645 3.57207 11.7348C3.49955 12.3033 3.43756 12.7568 3.3861 13.0953C3.33321 13.4246 3.2941 13.6904 3.26875 13.8927C3.1735 14.4363 3.1069 14.8905 3.06895 15.2553L3.84684 15.064C4.38244 14.9244 4.73326 14.8417 4.89928 14.816C5.02841 14.796 5.11817 14.7963 5.16857 14.8168C5.2282 14.8359 5.27827 14.8848 5.3188 14.9635C5.45091 15.0847 5.5241 15.1915 5.53839 15.2837C5.55553 15.3944 5.48005 15.4864 5.31195 15.5596C5.14385 15.6329 4.87461 15.6935 4.50425 15.7414C4.08283 15.8255 3.72988 15.8944 3.44538 15.9479C3.17154 16.0092 2.98603 16.0615 2.88886 16.1049C2.80091 16.1468 2.75271 16.2015 2.74426 16.269C2.75569 16.3427 2.7199 16.3861 2.63689 16.3989C2.54465 16.4132 2.45417 16.4083 2.36545 16.3843ZM11.2296 13.9206C11.0451 13.9492 10.8872 13.9359 10.7559 13.8806C10.6231 13.8162 10.5009 13.6982 10.3894 13.5266C10.2606 13.2443 10.1734 12.9555 10.1277 12.6604C10.1063 12.5221 10.1051 12.4231 10.1242 12.3634C10.1554 12.3208 10.1571 12.2403 10.1293 12.1218C10.1093 11.9927 10.095 11.9005 10.0864 11.8451C10.0444 11.6344 9.96338 11.5383 9.84347 11.5569C9.76046 11.5698 9.67323 11.6163 9.58177 11.6966C9.11526 12.0994 8.72461 12.4433 8.40984 12.7281C8.09506 13.013 7.7984 13.3234 7.51987 13.6593C7.4136 13.8269 7.33675 13.971 7.28933 14.0917C7.24191 14.2124 7.20793 14.2979 7.1874 14.3483C7.16545 14.3895 7.13141 14.4136 7.08529 14.4208C7.03281 14.4478 6.99735 14.4627 6.9789 14.4656C6.93278 14.4727 6.87387 14.4582 6.80216 14.4221C6.72903 14.3768 6.68181 14.3463 6.66051 14.3307C6.6179 14.2996 6.54866 14.2489 6.4528 14.1787C6.3555 14.0994 6.29939 14.0419 6.28445 14.0065C6.27302 13.9327 6.27426 13.7578 6.28818 13.4817C6.31132 13.2042 6.33562 13.0258 6.36108 12.9463C6.38875 12.942 6.42169 12.8802 6.45989 12.7609C6.49666 12.6325 6.5331 12.5324 6.56922 12.4607C6.57546 12.318 6.64608 11.9813 6.78109 11.4503C6.87593 11.209 6.93498 11.0109 6.95824 10.8562C6.99073 10.7001 6.99905 10.5099 6.98322 10.2857L6.97893 10.258C6.97322 10.2211 6.98277 10.1913 7.00758 10.1686C7.03096 10.1366 7.05649 10.1185 7.08416 10.1142C7.14158 10.0581 7.19796 10.0258 7.2533 10.0172C7.37321 9.99862 7.50454 10.0538 7.6473 10.1828C7.81279 10.3367 7.91053 10.5104 7.94053 10.7041C7.97767 10.9439 7.88405 11.3456 7.65968 11.9093C7.64201 11.9781 7.61479 12.0768 7.57802 12.2053C7.55047 12.3323 7.54027 12.4189 7.54741 12.465L8.24075 11.8193C8.30168 11.7249 8.47713 11.5466 8.76709 11.2844C9.05705 11.0223 9.26446 10.8674 9.3893 10.8197C9.59495 10.684 9.72544 10.6118 9.78078 10.6033C9.89146 10.5861 10.0519 10.6463 10.2621 10.7837C10.4815 10.9198 10.6182 11.0402 10.6722 11.1452C10.6879 11.2467 10.7086 11.319 10.7342 11.3623C10.8089 11.5396 10.8655 11.7528 10.9041 12.0018C10.9298 12.1678 10.9395 12.3222 10.9333 12.4648C10.9348 12.5968 10.9186 12.6749 10.8845 12.699C10.886 12.7082 10.8927 12.7214 10.9048 12.7384C10.9169 12.7554 10.9368 12.7618 10.9644 12.7575L10.9751 12.8267C10.9014 12.8381 10.9043 12.9179 10.9839 13.0661C11.0635 13.2144 11.1559 13.3228 11.261 13.3916C11.3675 13.4695 11.4279 13.5546 11.4422 13.6468C11.4593 13.7575 11.3884 13.8488 11.2296 13.9206ZM13.3567 11.7211C13.1723 11.7497 13.0073 11.7516 12.8618 11.727C12.7327 11.747 12.6383 11.7474 12.5787 11.7283C12.5283 11.7078 12.4789 11.6635 12.4306 11.5954C12.3624 11.521 12.3247 11.4607 12.3176 11.4146C12.309 11.3592 12.3533 11.3099 12.4505 11.2665C12.5462 11.2139 12.7211 11.1537 12.975 11.0861C13.2864 10.9623 13.5691 10.8666 13.8231 10.7989C14.0863 10.7298 14.4023 10.6667 14.7713 10.6095C15.0111 10.5724 15.1746 10.5612 15.2619 10.5761C15.3478 10.5816 15.4486 10.6227 15.5643 10.6992C15.6922 10.7928 15.7639 10.8903 15.7796 10.9917C15.7925 11.0747 15.7649 11.1404 15.6968 11.1887C15.638 11.2356 15.5472 11.2591 15.4244 11.2592L14.5635 11.4634C14.5082 11.472 14.3581 11.5094 14.1134 11.5756C13.8764 11.6312 13.6242 11.6797 13.3567 11.7211ZM17.4128 14.2947C17.3667 14.3018 17.3131 14.2912 17.2521 14.2629C17.2016 14.2424 17.1537 14.2073 17.1083 14.1577C17.0259 14.1138 16.9761 14.0365 16.959 13.9258C16.9261 13.7136 16.9965 13.1313 17.1701 12.1789C17.1947 11.9106 17.2253 11.6509 17.2619 11.3997C17.3008 11.2236 17.3138 11.0941 17.3009 11.0111C17.2895 10.9373 17.2859 10.8529 17.29 10.7578C17.302 10.6521 17.3051 10.5807 17.2994 10.5438C17.4101 10.5267 17.4823 10.3219 17.5159 9.92946C17.5314 9.7854 17.5458 9.66511 17.5592 9.56859C17.5712 9.46284 17.5775 9.38159 17.5781 9.32482C17.5923 9.29429 17.6043 9.24993 17.6142 9.19173C17.6333 9.13211 17.6485 9.07781 17.6598 9.02884C17.6993 8.79605 17.7541 8.57034 17.8241 8.35171C17.8705 7.91952 17.9325 7.46602 18.0101 6.99122C18.0954 6.50577 18.1717 6.1445 18.2389 5.90743L18.3406 5.46667C18.3456 5.43757 18.3561 5.38398 18.3724 5.30591C18.3964 5.21719 18.4056 5.15438 18.3999 5.11748C18.3942 5.08059 18.376 5.05506 18.3455 5.0409C18.2951 5.02037 18.2649 4.97783 18.2549 4.91326C18.2363 4.79336 18.3227 4.61942 18.5141 4.39145C18.6033 4.23595 18.682 4.13405 18.7501 4.08573C18.826 4.02675 18.9331 3.98655 19.0714 3.96513L19.5184 3.92423C19.6305 3.91631 19.9264 3.87521 20.406 3.80093C20.5146 3.83134 20.6417 3.85888 20.7871 3.88357C21.0781 3.93295 21.2265 3.97609 21.2322 4.01298C21.2393 4.0591 21.2582 4.08924 21.2887 4.1034C21.3285 4.11613 21.3813 4.12211 21.4473 4.12134C21.5395 4.10705 21.6989 4.19098 21.9255 4.37312C22.1598 4.54461 22.3449 4.73318 22.4806 4.93882C22.568 5.0764 22.6334 5.19377 22.6768 5.29094C22.728 5.37746 22.7636 5.48529 22.7836 5.61441C22.805 5.75276 22.8129 5.86487 22.8073 5.95074C22.8117 6.10117 22.8108 6.2477 22.8046 6.39034C22.7983 6.53298 22.7796 6.6256 22.7484 6.66821C22.618 6.80174 22.5592 6.91001 22.5721 6.99303C22.5835 7.06681 22.4936 7.27907 22.3024 7.62981C22.1203 7.97911 21.939 8.27165 21.7583 8.50742C21.5613 8.82126 21.3132 9.10996 21.0141 9.37353C20.0014 10.0309 19.2769 10.384 18.8405 10.4327C18.5525 10.5245 18.3791 10.5938 18.3203 10.6407C18.26 10.6784 18.2207 10.7601 18.2024 10.8857C18.1748 11.0127 18.148 11.1444 18.1219 11.2806C18.105 11.4155 18.0994 11.5014 18.1051 11.5382C18.0655 11.6483 17.9938 12.0088 17.8901 12.6199C17.7956 13.2295 17.7383 13.6823 17.718 13.9782C17.6996 14.1039 17.6696 14.1841 17.6277 14.2189C17.5859 14.2537 17.5143 14.279 17.4128 14.2947ZM18.4641 9.74011C18.4854 9.7557 18.5468 9.75564 18.6483 9.73993C18.7682 9.72136 18.9221 9.67863 19.1101 9.61173C19.3073 9.54342 19.4924 9.45808 19.6654 9.35572C19.9803 9.19362 20.3214 8.95662 20.6887 8.64474C20.7957 8.54316 20.924 8.39579 21.0736 8.20263C21.2323 8.00804 21.3783 7.79182 21.5114 7.55397C21.5525 7.45316 21.6296 7.21927 21.7428 6.85229C21.7966 6.71174 21.84 6.535 21.8732 6.32209C21.9155 6.10775 21.9246 5.92218 21.9003 5.76538C21.8888 5.69159 21.8757 5.63697 21.8607 5.6015C21.7775 5.36884 21.6187 5.16676 21.3843 4.99527C21.1578 4.81313 20.9097 4.70517 20.64 4.67138C20.4406 4.66448 20.2625 4.67318 20.1057 4.69746C19.9858 4.71603 19.8496 4.75129 19.6971 4.80325C19.5566 4.87222 19.4559 4.95392 19.395 5.04836C19.3433 5.14137 19.2828 5.33019 19.2136 5.61481C19.0643 6.05349 18.9392 6.52621 18.8382 7.03296C18.7679 7.67664 18.6811 8.21425 18.578 8.64579C18.4748 9.07733 18.4144 9.32753 18.3967 9.39638L18.4053 9.45172C18.4139 9.50706 18.4178 9.56311 18.4172 9.61988C18.4165 9.67665 18.4322 9.71673 18.4641 9.74011ZM23.7771 12.1332C23.6948 12.0892 23.6362 12.0464 23.6014 12.0045C23.5665 11.9627 23.542 11.8957 23.5277 11.8034C23.5149 11.7204 23.5087 11.6505 23.5094 11.5938C23.4885 11.2759 23.5013 10.9009 23.5477 10.4687L23.574 10.1812C23.5659 9.94638 23.6524 9.43715 23.8332 8.65357C24.0141 7.86999 24.176 7.33018 24.3191 7.03413C24.3857 6.97658 24.4606 6.94138 24.5436 6.92853C24.6635 6.90996 24.7714 6.93575 24.8672 7.0059C24.9283 7.03423 24.9667 7.09912 24.9824 7.20057C24.9967 7.29281 24.9812 7.43687 24.936 7.63277C24.8986 7.81801 24.824 8.09873 24.7122 8.47493C24.6868 8.55443 24.6436 8.70278 24.5828 8.91998C24.5312 9.13575 24.5083 9.26209 24.514 9.29898C24.5169 9.31743 24.5229 9.32593 24.5321 9.32451C24.5506 9.32165 24.5683 9.31418 24.5853 9.3021C24.6009 9.2808 24.6172 9.2641 24.6343 9.25202C24.7086 9.06107 24.9158 8.78341 25.2561 8.41904C25.6056 8.05324 25.8484 7.82202 25.9845 7.72538C26.0434 7.67849 26.1207 7.62874 26.2164 7.57613C26.3121 7.52353 26.377 7.48514 26.4111 7.46098C26.5472 7.36434 26.7167 7.30031 26.9197 7.26888C27.0488 7.24888 27.163 7.2548 27.2624 7.28663C27.3696 7.30781 27.448 7.35705 27.4978 7.43435C27.517 7.49748 27.5479 7.54464 27.5905 7.57582C27.6424 7.60557 27.6782 7.62363 27.6981 7.62999C27.7258 7.62571 27.7464 7.63669 27.7599 7.66293C27.7719 7.67995 27.7787 7.69307 27.7801 7.70229C27.7901 7.76685 27.7597 7.81407 27.6887 7.84395C27.6164 7.8646 27.4841 7.89453 27.2918 7.93376C27.1918 7.95869 27.0893 7.99818 26.9843 8.05221C26.8793 8.10625 26.7758 8.16951 26.6737 8.24199C26.2029 8.61713 25.8512 8.90771 25.6187 9.11373C25.3954 9.31832 25.1767 9.58357 24.9627 9.90949C24.8784 10.0359 24.7754 10.2549 24.6537 10.5665C24.5991 10.6411 24.5564 10.8224 24.5254 11.1106C24.5023 11.3881 24.4957 11.5591 24.5057 11.6236C24.5008 11.6527 24.4909 11.7109 24.4761 11.7982C24.4598 11.8763 24.4298 11.9565 24.3859 12.0389C24.298 12.2036 24.2172 12.2917 24.1434 12.3031C24.0604 12.3159 23.9383 12.2593 23.7771 12.1332ZM29.4972 11.5306C29.3865 11.5477 29.296 11.5429 29.2258 11.516C29.1555 11.4891 29.0525 11.4342 28.9169 11.3513C28.5626 11.0756 28.3647 10.804 28.3232 10.5366C28.3132 10.472 28.3107 10.4252 28.3156 10.3961C28.3333 10.3272 28.3325 10.2612 28.3133 10.1981C28.3033 10.1335 28.2969 10.092 28.294 10.0736C28.2514 10.0424 28.2294 10.0222 28.228 10.013C28.2251 9.99452 28.2322 9.97926 28.2492 9.96718C28.2648 9.94588 28.2758 9.92529 28.2822 9.90541C28.3375 9.89684 28.3481 9.84326 28.3139 9.74466C28.284 9.67373 28.2959 9.5066 28.3496 9.24329C28.4018 8.97075 28.4807 8.7177 28.5862 8.48413C28.662 8.3024 28.7774 8.07202 28.9325 7.79299C29.0969 7.51253 29.2474 7.2956 29.3842 7.14219C29.5756 6.91421 29.7517 6.74054 29.9127 6.62116C30.0737 6.50179 30.2566 6.40261 30.4616 6.32364C30.639 6.24896 30.7599 6.20661 30.8245 6.19662C30.889 6.18662 30.9472 6.19649 30.9991 6.22624C31.0587 6.24534 31.1364 6.28997 31.2323 6.36012C31.4985 6.43224 31.6912 6.54877 31.8106 6.70973C31.9378 6.86004 32.0292 7.11505 32.0849 7.47476C32.1778 8.07428 32.0341 8.76238 31.6538 9.53907C31.4888 9.87629 31.3269 10.1422 31.1682 10.3368C31.008 10.5222 30.79 10.7306 30.5142 10.9622C30.3419 11.1306 30.1778 11.2599 30.0218 11.3502C29.8735 11.4298 29.6987 11.4899 29.4972 11.5306ZM30.5982 9.85838C30.781 9.57507 30.9199 9.31273 31.0147 9.07137C31.1188 8.82858 31.2043 8.52727 31.2714 8.16744C31.2932 8.0035 31.287 7.81085 31.2527 7.58949C31.2098 7.31278 31.1487 7.1617 31.0692 7.13624C30.9698 7.1044 30.874 7.09563 30.7818 7.10991C30.5788 7.14134 30.381 7.26643 30.1882 7.48518C29.9564 7.75719 29.7609 8.08025 29.6016 8.45437C29.4409 8.81927 29.2884 9.26789 29.1442 9.80024C29.082 10.0082 29.0651 10.2044 29.0937 10.3889C29.1151 10.5273 29.1646 10.6329 29.242 10.7059C29.3286 10.7775 29.4319 10.804 29.5518 10.7855C29.8562 10.7383 30.205 10.4293 30.5982 9.85838ZM36.9725 10.4437C36.8157 10.468 36.6978 10.439 36.619 10.3568C36.4869 10.2356 36.3914 10.137 36.3324 10.0612C36.2812 9.97464 36.2463 9.87143 36.2278 9.75153C36.212 9.65007 36.2038 9.56635 36.203 9.50035L36.1598 8.85537C36.1385 8.83978 36.1023 8.85011 36.0513 8.88635C36.0094 8.92116 35.9683 8.96058 35.9279 9.00462C35.8967 9.04723 35.8648 9.08522 35.8322 9.11861L35.627 9.34872C35.2926 9.87274 34.9882 10.2552 34.7139 10.496C34.4487 10.7354 34.187 10.8751 33.9288 10.9151L33.7744 10.9248C33.5779 10.9364 33.4206 10.8663 33.3027 10.7146C33.1833 10.5536 33.1029 10.3394 33.0615 10.0719C33.0401 9.93355 33.029 9.83138 33.0282 9.76538C33.0151 9.43685 33.0378 9.12638 33.0964 8.83396C33.155 8.54155 33.2654 8.21751 33.4275 7.86183C33.5415 7.56085 33.726 7.25837 33.9812 6.95441C34.2456 6.64901 34.5175 6.42273 34.7969 6.27557C35.0579 6.13125 35.3083 6.04053 35.5481 6.00339C35.7049 5.97911 35.8653 5.97788 36.0292 5.99971C36.1485 6.03791 36.2404 6.05201 36.3049 6.04201C36.3787 6.03058 36.4269 5.9759 36.4495 5.87795C36.4778 5.8169 36.5036 5.70901 36.5269 5.55429C36.5693 5.33995 36.6071 5.1877 36.6403 5.09755L36.8054 4.15113L37.0323 3.23765L37.2878 2.23473C37.4151 1.83722 37.5434 1.62847 37.6725 1.60847C37.7463 1.59705 37.8418 1.6342 37.9589 1.71995C38.0562 1.79933 38.1134 1.89435 38.1306 2.00503C38.1449 2.09727 38.135 2.21685 38.1011 2.36377C38.0764 2.50926 38.0415 2.67995 37.9963 2.87585C37.9064 3.08811 37.8222 3.33727 37.7437 3.62331L37.609 4.12585C37.4514 4.75471 37.3588 5.13267 37.3313 5.25971L37.2785 5.6504C37.2354 5.92151 37.2098 6.15216 37.2015 6.34234C37.1891 6.75037 37.1552 6.95867 37.0999 6.96724C36.961 7.1682 36.8885 7.73666 36.8823 8.67263C36.8797 8.89971 36.927 9.32684 37.0241 9.95403C37.057 10.1662 37.0685 10.3013 37.0586 10.3595C37.0565 10.4071 37.0278 10.4351 36.9725 10.4437ZM33.8906 10.0285C34.0659 10.0013 34.2357 9.90893 34.4002 9.75123C34.5724 9.58288 34.7854 9.34212 35.0392 9.02893C35.2511 8.75055 35.493 8.33058 35.7649 7.76901C36.0368 7.20745 36.1663 6.88516 36.1535 6.80215C36.1478 6.76525 36.0967 6.74011 36.0001 6.72673C35.9036 6.71334 35.8 6.71522 35.6893 6.73236C35.6155 6.74379 35.5432 6.76444 35.4723 6.79432C35.2673 6.87329 35.0747 7.00227 34.8947 7.18127C34.7224 7.34962 34.5463 7.58468 34.3664 7.88644C34.1581 8.24925 33.9988 8.62337 33.8885 9.0088C33.7782 9.39422 33.7381 9.68378 33.7681 9.87747C33.7852 9.98815 33.826 10.0385 33.8906 10.0285ZM42.1304 9.75821C42.0716 9.8051 41.9818 9.80483 41.8611 9.75741C41.7497 9.70856 41.6332 9.62743 41.5118 9.51401C41.4194 9.40554 41.354 9.28817 41.3156 9.16189C41.2863 9.0342 41.2403 8.76743 41.1774 8.3616C41.1632 8.26937 41.1376 8.22611 41.1007 8.23182C41.073 8.23611 41.0156 8.29223 40.9284 8.40017C40.8398 8.4989 40.7331 8.63347 40.6084 8.8039C40.4043 9.07163 40.2108 9.28577 40.0279 9.44632C39.845 9.60687 39.6883 9.69254 39.5577 9.70331C39.4562 9.71902 39.3349 9.66699 39.1935 9.54721C39.0614 9.426 38.9488 9.27816 38.8557 9.10369C38.8108 8.9973 38.777 8.87031 38.7542 8.72274C38.6942 8.33536 38.6997 7.85283 38.7708 7.27514C38.8511 6.69602 38.9666 6.19174 39.1173 5.76228C39.2759 5.32217 39.4381 5.08925 39.6041 5.06354C39.7425 5.04211 39.8952 5.1743 40.0622 5.4601C40.0985 5.51116 40.1194 5.55513 40.1252 5.59203C40.1352 5.65659 40.1083 5.72687 40.0445 5.80286C39.9333 5.99953 39.8204 6.33812 39.706 6.81864C39.5915 7.29915 39.5089 7.74167 39.4582 8.14619C39.4168 8.54929 39.4283 8.74584 39.4929 8.73584C39.622 8.71584 39.7663 8.64154 39.9259 8.51294C40.0854 8.38434 40.2399 8.22346 40.3894 8.0303C40.5376 7.82792 40.6658 7.61917 40.7741 7.40405C40.8811 7.17971 41.0096 6.88119 41.1596 6.5085C41.4513 5.83054 41.6077 5.43797 41.6289 5.3308C41.7272 5.05112 41.7984 4.8701 41.8423 4.78774C41.894 4.69473 41.9638 4.62725 42.0518 4.5853L42.2455 4.5553C42.3022 4.55595 42.3732 4.58746 42.4584 4.64982C42.5273 4.66749 42.5692 4.69406 42.5841 4.72952C42.6069 4.75433 42.6225 4.79441 42.6311 4.84975L42.489 5.39593L42.4095 5.70575C42.406 5.74407 42.3717 5.858 42.3066 6.04753C42.1673 6.55077 42.0644 6.95393 41.998 7.257C41.9316 7.56006 41.8943 7.86807 41.8861 8.18101C41.8841 8.22855 41.8916 8.30767 41.9087 8.41835C41.9516 8.69505 42.0093 8.88445 42.0817 8.98656C42.1905 9.13973 42.292 9.24678 42.3865 9.30771C42.4383 9.33746 42.4671 9.37078 42.4728 9.40767C42.4828 9.47224 42.4375 9.54537 42.3368 9.62708C42.2453 9.70735 42.1765 9.75106 42.1304 9.75821ZM45.9406 8.8281C45.8371 8.89136 45.7253 8.93227 45.6054 8.95084C45.4117 8.98084 45.1687 8.96654 44.8763 8.90794C44.8302 8.91508 44.7499 8.885 44.6356 8.8177C44.5213 8.75041 44.4332 8.6696 44.3714 8.57528C44.2137 8.41082 44.1106 8.17178 44.062 7.85819C43.9892 7.3878 44.0358 6.80446 44.2018 6.10817C44.2704 5.88032 44.3936 5.57791 44.5713 5.20093C44.7569 4.81331 44.8875 4.59 44.9634 4.53103C44.9897 4.51752 45.0507 4.48446 45.1464 4.43186C45.2407 4.37003 45.3474 4.29683 45.4666 4.21227C45.5857 4.12771 45.7329 4.07186 45.9081 4.04472C46.0834 4.01757 46.287 4.05214 46.5192 4.14841C46.7591 4.23403 46.9565 4.34986 47.1113 4.49588C47.2662 4.6419 47.3344 4.77772 47.3161 4.90334C47.3112 4.93244 47.2651 5.00096 47.1779 5.10891C47.1 5.21542 47.0376 5.30064 46.9909 5.36455C46.9519 5.41781 46.9001 5.44944 46.8356 5.45944C46.7526 5.47229 46.6738 5.45144 46.5992 5.39688C46.5232 5.33309 46.4713 5.24196 46.4435 5.12348C46.4165 5.071 46.3473 5.02033 46.2358 4.97148C46.1336 4.9212 46.0626 4.88969 46.0228 4.87696C45.9491 4.88839 45.853 4.96938 45.7346 5.11993C45.6255 5.26906 45.5214 5.45047 45.4222 5.66416C45.2444 5.91837 45.1067 6.21832 45.0091 6.56399C44.9115 6.90966 44.8483 7.20279 44.8195 7.44338C44.8067 7.48313 44.8075 7.54912 44.8218 7.64135C44.8375 7.74281 44.8624 7.84284 44.8966 7.94144C44.94 8.03861 44.9776 8.09889 45.0096 8.12227C45.0295 8.12864 45.0763 8.12611 45.1501 8.11468C45.3622 8.08183 45.657 8.00312 46.0344 7.87856C46.4195 7.74335 46.7118 7.61781 46.9111 7.50195C47.1018 7.33074 47.294 7.23014 47.4877 7.20014C47.5522 7.19014 47.5991 7.18761 47.6282 7.19255C47.7566 7.22932 47.8266 7.2846 47.838 7.35839C47.858 7.48751 47.7457 7.64658 47.5011 7.83558C47.3571 7.94287 47.2362 8.04659 47.1384 8.14675C47.0406 8.2469 46.9953 8.32003 47.0024 8.36615C46.984 8.36901 46.9492 8.38855 46.8981 8.4248C46.8457 8.45181 46.8095 8.46214 46.7896 8.45577C46.6896 8.48071 46.5378 8.53727 46.3342 8.62547C46.1307 8.71366 45.9994 8.78121 45.9406 8.8281ZM50.2432 8.43092C50.0913 8.4261 49.9241 8.35283 49.7416 8.21109C49.5669 8.0587 49.445 7.91229 49.3761 7.77186C49.3732 7.75341 49.3611 7.73639 49.3398 7.7208C49.3171 7.69599 49.3004 7.67969 49.2898 7.67189C49.2486 7.64994 49.2066 7.50061 49.1637 7.22391C49.1294 7.00254 49.1029 6.77053 49.0842 6.52787C49.0748 6.28377 49.0771 6.08508 49.0911 5.9318L49.2266 5.15997L49.3345 4.57657L49.5838 3.71628L49.0068 3.6498C48.9408 3.65058 48.8805 3.62687 48.8258 3.57867C48.7804 3.52905 48.7541 3.48117 48.7469 3.43506C48.7355 3.36127 48.7588 3.26793 48.8169 3.15505C48.8827 3.03151 48.9387 2.96617 48.9849 2.95903C49.014 2.96397 49.0885 2.95715 49.2084 2.93858C49.4851 2.89573 49.6904 2.84975 49.8245 2.80066C49.911 2.74948 49.9642 2.66569 49.9839 2.5493C50.0094 2.4698 50.0366 2.37113 50.0656 2.25331C50.1038 2.13406 50.1388 2.02475 50.1706 1.92537C50.1897 1.86575 50.2184 1.77631 50.2566 1.65706C50.3026 1.52715 50.3603 1.38127 50.4296 1.21941C50.4438 1.18889 50.4753 1.11789 50.5241 1.00644C50.5716 0.885758 50.6357 0.781383 50.7165 0.693311C50.7711 0.618748 50.8445 0.574325 50.9367 0.56004C51.0289 0.545755 51.1581 0.587137 51.3243 0.684185C51.347 0.708998 51.3758 0.742321 51.4106 0.784152C51.4546 0.824555 51.4795 0.863203 51.4852 0.900097C51.4909 0.936991 51.4662 1.0211 51.4109 1.15243C51.3727 1.27169 51.3331 1.38171 51.2921 1.48252C51.2588 1.57267 51.2287 1.65289 51.2018 1.72316C51.1197 1.92477 51.0627 2.07527 51.0309 2.17464C50.9572 2.30883 50.9254 2.40821 50.9354 2.47277C50.9454 2.53733 51.0104 2.56033 51.1303 2.54176C51.2594 2.52176 51.4719 2.46052 51.7677 2.35804C51.8939 2.3196 51.9801 2.2968 52.0262 2.28966C52.3491 2.23966 52.545 2.34626 52.6141 2.60946C52.6319 2.66337 52.6465 2.72722 52.6579 2.801C52.6779 2.93013 52.644 3.01567 52.556 3.05763C52.4773 3.09815 52.2857 3.14199 51.9814 3.18913C51.6934 3.28095 51.3926 3.35115 51.079 3.39972C51.0236 3.40829 50.9598 3.4229 50.8874 3.44355C50.8229 3.45355 50.7551 3.47349 50.6842 3.50336C50.6133 3.53324 50.5622 3.56948 50.531 3.61208C50.5091 3.65326 50.4861 3.71821 50.462 3.80694C50.4386 3.83889 50.3905 3.95496 50.3176 4.15514C50.2299 4.44262 50.1719 4.61688 50.1436 4.67794C50.0088 5.45438 49.9415 6.23926 49.9416 7.0326C49.946 7.18303 49.9511 7.27669 49.9568 7.31358C49.9782 7.45193 50.0393 7.54164 50.1401 7.58269C50.2409 7.62375 50.402 7.62713 50.6234 7.59285C50.937 7.54428 51.204 7.46986 51.4246 7.36959C51.6828 7.20683 51.8746 7.07323 52.0001 6.96879C52.0759 6.90982 52.1433 6.85689 52.2021 6.81C52.2688 6.75245 52.3145 6.71231 52.3393 6.68958C52.3584 6.62995 52.3864 6.59728 52.4233 6.59157C52.4971 6.58014 52.5731 6.64393 52.6513 6.78293C52.6742 6.93051 52.6619 7.06463 52.6145 7.18531C52.567 7.30599 52.4256 7.46012 52.1902 7.64769C51.7081 8.07181 51.1996 8.32529 50.6646 8.40814C50.5171 8.431 50.3766 8.43859 50.2432 8.43092ZM55.1249 1.71059C54.9496 1.73773 54.7555 1.67335 54.5425 1.51746C54.3372 1.35091 54.2189 1.16617 54.1875 0.96326C54.1803 0.917143 54.2192 0.802503 54.3042 0.619341C54.3892 0.436179 54.4302 0.335374 54.4274 0.316927C54.4919 0.306928 54.548 0.302969 54.5955 0.30505C54.6431 0.307131 54.7013 0.317007 54.7701 0.334678C54.8817 0.50629 55.0401 0.67537 55.2454 0.84192C55.3121 0.907136 55.3736 0.968455 55.4297 1.02588C55.4858 1.0833 55.5174 1.13507 55.5246 1.18118C55.5489 1.33798 55.5561 1.44548 55.5462 1.50368C55.5455 1.56044 55.5144 1.60305 55.4526 1.6315C55.4002 1.65851 55.2909 1.68488 55.1249 1.71059ZM53.9032 7.26906C53.8755 7.27334 53.8372 7.26983 53.7882 7.25853C53.7393 7.24722 53.7049 7.23839 53.685 7.23202C53.6807 7.20435 53.6597 7.16038 53.622 7.1001C53.5922 7.02917 53.5758 6.98448 53.5729 6.96603C53.4934 6.94057 53.4494 6.90016 53.4408 6.84482C53.4337 6.79871 53.4375 6.732 53.4523 6.64471C53.5394 6.414 53.6773 5.90153 53.8659 5.1073C54.0532 4.30384 54.1545 3.83008 54.17 3.68601C54.1643 3.64912 54.171 3.60086 54.1901 3.54124C54.2092 3.48161 54.2343 3.43049 54.2655 3.38789C54.2967 3.34528 54.3353 3.3204 54.3814 3.31326C54.4829 3.29755 54.5858 3.35244 54.6903 3.47793C54.8039 3.602 54.8736 3.74704 54.8993 3.91306C54.9165 4.02374 54.8597 4.35838 54.729 4.91697C54.606 5.4649 54.4562 6.02173 54.2793 6.58746C54.2539 6.66696 54.215 6.7816 54.1626 6.93138C54.1195 7.07973 54.0816 7.1706 54.049 7.20398C54.0164 7.23737 53.9678 7.25906 53.9032 7.26906ZM57.2484 7.23265C57.1377 7.24979 57.0472 7.24492 56.9769 7.21802C56.9067 7.19113 56.8037 7.13624 56.6681 7.05335C56.3137 6.77767 56.1158 6.50609 56.0744 6.23861C56.0644 6.17405 56.0619 6.12722 56.0668 6.09812C56.0845 6.02927 56.0837 5.96328 56.0645 5.90014C56.0545 5.83558 56.0481 5.79408 56.0452 5.77563C56.0026 5.74445 55.9806 5.72425 55.9792 5.71502C55.9763 5.69658 55.9834 5.68131 56.0004 5.66923C56.016 5.64793 56.027 5.62734 56.0333 5.60747C56.0887 5.5989 56.0993 5.54531 56.0651 5.44671C56.0352 5.37578 56.0471 5.20866 56.1008 4.94534C56.153 4.6728 56.2319 4.41975 56.3374 4.18619C56.4131 4.00445 56.5286 3.77407 56.6837 3.49504C56.848 3.21458 56.9986 2.99765 57.1354 2.84424C57.3268 2.61627 57.5029 2.44259 57.6639 2.32322C57.8249 2.20384 58.0078 2.10467 58.2128 2.0257C58.3901 1.95101 58.5111 1.90867 58.5757 1.89867C58.6402 1.88867 58.6984 1.89855 58.7502 1.9283C58.8099 1.9474 58.8876 1.99202 58.9835 2.06218C59.2497 2.13429 59.4424 2.25082 59.5618 2.41178C59.689 2.56209 59.7804 2.8171 59.8361 3.17681C59.929 3.77633 59.7853 4.46443 59.405 5.24112C59.24 5.57835 59.0781 5.84425 58.9194 6.03884C58.7592 6.22421 58.5412 6.4327 58.2654 6.6643C58.0931 6.83265 57.929 6.96196 57.773 7.05224C57.6247 7.13186 57.4499 7.192 57.2484 7.23265ZM58.3494 5.56044C58.5322 5.27712 58.671 5.01478 58.7659 4.77342C58.8699 4.53064 58.9555 4.22933 59.0226 3.86949C59.0444 3.70555 59.0382 3.5129 59.0039 3.29154C58.961 3.01484 58.8998 2.86375 58.8203 2.83829C58.721 2.80646 58.6252 2.79768 58.5329 2.81197C58.33 2.84339 58.1322 2.96848 57.9394 3.18723C57.7076 3.45924 57.5121 3.78231 57.3528 4.15643C57.1921 4.52132 57.0396 4.96994 56.8954 5.50229C56.8332 5.71026 56.8163 5.90649 56.8449 6.09095C56.8663 6.2293 56.9157 6.33498 56.9932 6.408C57.0798 6.47958 57.1831 6.50608 57.303 6.48751C57.6074 6.44038 57.9562 6.13135 58.3494 5.56044ZM65.4665 6.00238C65.3281 6.02381 65.1687 5.93988 64.9883 5.7506C64.8157 5.55067 64.7129 5.34463 64.6801 5.13249C64.6572 4.98492 64.6488 4.71705 64.6548 4.32889C64.6686 3.93008 64.6976 3.53836 64.7419 3.15371C64.7716 2.97912 64.7807 2.85493 64.7692 2.78114C64.7621 2.73502 64.7401 2.71482 64.7032 2.72054C64.6663 2.72625 64.5642 2.79873 64.3969 2.93798C64.126 3.14049 63.9452 3.31488 63.8545 3.46115C63.8141 3.50518 63.7503 3.58117 63.6632 3.68912C63.576 3.79707 63.4952 3.88514 63.4208 3.95334C63.2669 4.11883 63.0632 4.35817 62.8094 4.67136C62.5635 4.97389 62.3626 5.23168 62.2067 5.44472C62.1671 5.55474 62.0965 5.61761 61.9951 5.63333C61.9674 5.63761 61.9245 5.63482 61.8663 5.62494C61.7513 5.61441 61.6452 5.56946 61.5479 5.49008C61.4492 5.40148 61.3912 5.30184 61.3741 5.19116C61.3527 5.05281 61.3861 4.75013 61.4743 4.28313C61.5717 3.81469 61.6997 3.29904 61.8581 2.73617C61.8849 2.66589 61.9029 2.56866 61.912 2.44447C61.9197 2.31105 61.915 2.18901 61.8978 2.07833C61.8878 2.01376 61.8902 1.93783 61.9051 1.85054C61.9199 1.76324 61.9429 1.69829 61.9741 1.65568C61.9946 1.60528 62.0325 1.57579 62.0879 1.56722C62.2078 1.54865 62.3199 1.60212 62.4244 1.72761C62.5934 1.84311 62.6943 2.00692 62.7271 2.21906C62.7543 2.3943 62.7386 2.62813 62.68 2.92055C62.6354 3.05967 62.6011 3.1736 62.5771 3.26232C62.5608 3.34039 62.5502 3.39398 62.5453 3.42308C62.573 3.41879 62.6829 3.33566 62.875 3.17368L63.1887 2.91258L63.5545 2.5301C63.7409 2.33122 63.848 2.22964 63.8756 2.22536C63.9125 2.21964 63.9565 2.19867 64.0076 2.16242C64.0586 2.12618 64.0997 2.08676 64.1309 2.04415C64.1543 2.0122 64.1745 1.99018 64.1915 1.9781C64.2178 1.96459 64.2355 1.95712 64.2447 1.95569C64.2539 1.95426 64.2763 1.94608 64.3118 1.93114C64.3472 1.91621 64.3766 1.89276 64.4 1.8608C64.4312 1.8182 64.4929 1.78975 64.5851 1.77547C64.7143 1.75547 64.8498 1.77697 64.9918 1.83999C65.1338 1.903 65.2126 1.98523 65.2284 2.08669C65.2326 2.11436 65.2462 2.1406 65.2689 2.16541C65.2902 2.181 65.3062 2.1927 65.3168 2.20049C65.3537 2.19478 65.3939 2.24051 65.4372 2.33768C65.4792 2.42563 65.5109 2.53878 65.5323 2.67713C65.5637 2.88004 65.5671 3.05425 65.5424 3.19974C65.5581 3.3012 65.5597 3.43318 65.5471 3.59569C65.5345 3.7582 65.5271 3.86323 65.525 3.91078L65.4977 4.28334C65.435 4.67085 65.4222 4.9845 65.4593 5.22431C65.4879 5.40878 65.5469 5.54603 65.6364 5.63606C65.6606 5.67009 65.6755 5.70556 65.6812 5.74245C65.6898 5.79779 65.6746 5.85209 65.6356 5.90535C65.6059 5.95718 65.5495 5.98953 65.4665 6.00238Z" fill="url(#paint0_angular)"/>
<defs>
<radialGradient id="paint0_angular" cx="0" cy="0" r="1" gradientUnits="userSpaceOnUse" gradientTransform="translate(32.4769 6.22202) rotate(81.1963) scale(9 34)">
<stop offset="0.177083" stop-color="#2C0ADF"/>
<stop offset="0.572917" stop-color="#761313" stop-opacity="0.934472"/>
<stop offset="0.973958" stop-color="#717A0C" stop-opacity="0.87"/>
</radialGradient>
</defs>
</svg>
