<svg width="54" height="38" viewBox="0 0 54 38" fill="none" xmlns="http://www.w3.org/2000/svg">
<path d="M50.379 37.9206H3.40748C1.58625 37.9206 0.0527344 36.5408 0.0527344 34.805V3.29359C0.0525235 1.60219 1.53816 0.177979 3.40748 0.177979H50.379C52.2003 0.177979 53.7342 1.55773 53.7342 3.29359V34.805C53.7342 36.5408 52.2484 37.9206 50.379 37.9206Z" fill="#E3E3E3"/>
<path opacity="0.1" d="M6.7627 37.9207L26.8454 22.9215L26.9893 22.1204L6.28345 8.27856L6.23535 37.2532L6.7627 37.9207V37.9207Z" fill="#231F20"/>
<path d="M3.40745 37.9206C1.53812 37.9206 0.0524902 36.5409 0.0524902 34.805V3.24896C0.0524902 1.5133 1.53812 1.20166 3.40745 1.20166C5.27678 1.20166 6.76262 1.55776 6.76262 3.24896V37.9206H3.40745Z" fill="#D54B3D"/>
<path d="M3.40748 1.64669C5.80395 1.64669 6.28341 2.31443 6.28341 3.24896V37.4756H3.40748C1.82587 37.4756 0.531773 36.2739 0.531773 34.805V3.24896C0.531773 2.26977 1.01102 1.64669 3.40748 1.64669ZM3.40748 1.20166C1.53816 1.20166 0.0527344 1.55776 0.0527344 3.24896V34.8052C0.0527344 36.5411 1.53837 37.9208 3.4077 37.9208H6.76266V3.24896C6.76266 1.5133 5.27681 1.20166 3.40748 1.20166V1.20166Z" fill="#D72B27"/>
<path d="M50.3791 37.9206H47.0239V3.16003C47.0239 1.42418 48.5098 1.20166 50.3791 1.20166C52.2484 1.20166 53.7343 1.42418 53.7343 3.16003V34.8497C53.7343 36.5409 52.2484 37.9206 50.3791 37.9206Z" fill="#D54B3D"/>
<path d="M50.3791 1.64669C52.5359 1.64669 53.2548 2.04726 53.2548 3.16003V34.8497C53.2548 36.3184 51.9607 37.5201 50.3791 37.5201H47.5032V3.16003C47.5032 2.00279 48.2223 1.64669 50.3791 1.64669ZM50.3791 1.20166C48.5098 1.20166 47.0239 1.42418 47.0239 3.16003V37.9653H50.3791C52.2484 37.9653 53.7343 36.5853 53.7343 34.8497V3.16003C53.7343 1.42418 52.2484 1.20166 50.3791 1.20166Z" fill="#D72B27"/>
<path d="M36 37.9208L0.333252 4.54352L2.20933 5.252L27.0371 21.8535L53.7342 3.6748V34.8499C53.7342 36.5411 52.2483 37.9208 50.379 37.9208H36Z" fill="url(#paint0_linear)"/>
<path d="M26.8454 22.9215L1.49033 5.83055C0.00448885 4.8069 -0.426878 2.84853 0.675481 1.46878C1.77826 0.0890239 3.93489 -0.222419 5.46861 0.80123L26.8935 15.2663L48.4617 0.622983C49.9475 -0.400667 52.0565 -0.0890276 53.1588 1.33519C54.2612 2.71494 53.9258 4.67331 52.3919 5.69696L26.8452 22.9213L26.8454 22.9215Z" fill="#D54B3D"/>
<path d="M50.3799 0.445031C51.2905 0.445031 52.1532 0.845598 52.7285 1.55761C53.6391 2.75951 53.3516 4.40624 52.1053 5.29649L26.8462 22.3875L1.77882 5.47455C0.484721 4.58429 0.14912 2.8929 1.05974 1.73586C1.58708 1.06811 2.4977 0.623278 3.4562 0.623278C4.07931 0.623278 4.70242 0.801134 5.18167 1.15724L26.5587 15.5776L26.8462 15.7559L27.1337 15.5776L48.6544 0.934722C49.1818 0.623278 49.7568 0.445031 50.3799 0.445031V0.445031ZM50.3799 0C49.7089 0 48.9898 0.178052 48.4148 0.578619L26.8462 15.2215L5.42129 0.75667C4.84649 0.356103 4.12761 0.178052 3.40853 0.178052C2.35405 0.178052 1.29957 0.623083 0.628581 1.46888C-0.425896 2.84843 0.00547133 4.8068 1.49132 5.83045L26.8464 22.9661L52.345 5.69706C53.8308 4.67341 54.1664 2.75951 53.1119 1.33529C52.4409 0.445031 51.4344 0 50.3799 0Z" fill="#D72B27"/>
<defs>
<linearGradient id="paint0_linear" x1="0.335388" y1="20.7971" x2="53.7513" y2="20.7971" gradientUnits="userSpaceOnUse">
<stop stop-opacity="0.1"/>
<stop offset="1" stop-opacity="0.2"/>
</linearGradient>
</defs>
</svg>
