<svg width="458" height="783" viewBox="0 0 458 783" fill="none" xmlns="http://www.w3.org/2000/svg">
<path d="M210.573 589.613C225.976 528.829 164.158 492.951 152.32 482.956C158.617 457.266 162.093 442.844 128 403.34C108.898 370.649 103.469 352.287 123 319.34C-97.8306 351.636 52.2361 -38.9396 167.5 5.84023C191.581 15.1957 172 42.6797 223 41.8402C274 41.0008 297.754 90.4929 234.5 176.34C171.246 262.188 205.271 328.405 214.223 367.855C225.413 417.166 441.981 414.776 521.015 474.136C600.049 533.497 507.655 678.242 424.662 737.914C341.669 797.585 193.336 786.212 166.197 733.66C142.835 688.422 148.885 691.691 179.077 680.278C241.463 656.696 192.135 616.106 210.573 589.613Z" fill="url(#paint0_linear)"/>
<defs>
<linearGradient id="paint0_linear" x1="347.358" y1="775" x2="357.107" y2="182.631" gradientUnits="userSpaceOnUse">
<stop stop-color="#F4BA49"/>
<stop offset="0.442708" stop-color="#BFAAEA"/>
<stop offset="0.697917" stop-color="#9D74F2"/>
</linearGradient>
</defs>
</svg>
