<svg width="64" height="67" viewBox="0 0 64 67" fill="none" xmlns="http://www.w3.org/2000/svg">
<g clip-path="url(#clip0)">
<path d="M10.808 36.8308C9.88251 43.4819 15.7088 49.8785 21.964 49.7703C16.5362 47.4996 12.3718 42.7817 10.808 36.8308Z" fill="#231700"/>
<path d="M21.9638 49.7703L21.8114 49.7712C21.8307 49.7721 21.8757 49.7696 21.9638 49.7703Z" fill="#231700"/>
<path d="M10.3904 48.9889C11.9742 54.0043 18.6785 55.8821 22.4467 52.79C17.8227 52.8041 14.6953 52.557 10.3904 48.9889Z" fill="#231700"/>
<path d="M41.1021 22.5633C42.4351 15.8353 36.7476 9.23512 30.4044 9.00064C35.8068 11.5198 39.8244 16.4745 41.1021 22.5633Z" fill="#231700"/>
<path d="M41.9729 17.9324C44.5296 14.0126 41.7309 8.06634 37.4519 6.92188C40.1932 10.3633 41.6069 13.482 41.9729 17.9324Z" fill="#231700"/>
<path d="M50.4371 12.8092C49.547 12.3695 48.5562 12.2512 47.618 12.4727C41.9527 13.8035 42.8069 22.0026 42.2798 25.4054C42.2798 25.4054 33.3888 13.6504 30.3515 9.79615C27.2191 5.82016 22.9884 7.78764 22.2567 10.5244C18.3497 7.79177 13.1589 11.9581 14.8921 15.9889C10.8014 16.599 10.1826 21.2503 11.7164 23.7788C8.59062 24.4039 8.11293 28.8825 9.8576 31.5986C9.94811 31.7402 18.2007 42.1373 20.619 45.7718C20.8998 46.1936 21.1897 46.6472 21.4944 47.1251C23.4966 50.2631 26.2391 54.5607 31.2313 57.357C33.3805 58.5606 36.0305 58.841 38.8969 58.1677C43.9489 56.981 48.9387 52.9549 51.6093 47.9094C54.0014 43.391 54.4887 38.4198 53.0187 33.5324C51.698 29.1389 52.0259 24.6302 52.2888 21.0067C52.5738 17.0745 52.7982 13.9684 50.4371 12.8092ZM50.4754 33.9742C53.4312 43.686 46.2228 54.1594 38.449 55.9855C36.074 56.5434 33.5168 56.7074 31.6492 55.6614C26.294 52.6613 24.0148 47.9274 21.9327 44.8027C19.4443 41.0639 13.8495 34.0706 11.1038 30.5362C9.97989 29.0891 10.4106 25.3465 12.5726 24.8386L22.1684 37.6802L24.8903 38.6552C24.8903 38.6552 16.4918 27.206 13.7489 23.2244C12.1476 20.8997 13.1449 17.4043 15.5619 17.2616L27.4897 33.2675L30.2131 34.2458L16.363 15.8125C15.4712 12.1783 20.0782 11.0361 21.6518 12.911C25.6343 17.6564 33.5121 28.2731 33.5121 28.2731L36.2338 29.2509L23.2133 11.8667C24.3187 9.14239 27.314 8.78425 29.2379 11.324C31.5488 14.3743 41.4219 27.6617 41.4219 27.6617C35.705 31.7001 33.1322 40.1181 39.3621 46.3573C33.9047 39.218 38.9267 32.0871 42.2381 29.3422C43.4912 28.3023 43.6994 26.8439 43.6994 26.8439L43.6965 26.8455C43.9641 25.7633 43.6316 24.4784 43.7301 22.2493C43.9448 17.4245 45.134 14.6152 47.7056 14.0111C48.2984 13.8718 49.1576 14.1747 49.6285 14.6396C52.0081 16.99 47.7285 24.9506 50.4754 33.9742Z" fill="#855801"/>
</g>
<defs>
<clipPath id="clip0">
<rect width="51.6854" height="55.7575" fill="white" transform="translate(0 11.8194) rotate(-13.2193)"/>
</clipPath>
</defs>
</svg>
