<svg width="124" height="123" viewBox="0 0 124 123" fill="none" xmlns="http://www.w3.org/2000/svg">
<g filter="url(#filter0_d)">
<ellipse cx="62" cy="61.5" rx="58" ry="57.5" fill="#F5EA86"/>
</g>
<g clip-path="url(#clip0)">
<path d="M92.8227 46.0166C92.8219 45.786 92.756 45.5597 92.6317 45.3602C92.5074 45.1607 92.329 44.995 92.1143 44.8797L62.5314 29.1767C62.3159 29.061 62.0716 29.0001 61.8228 29.0001C61.5741 29.0001 61.3297 29.061 61.1143 29.1767L31.7086 45.1582C31.4926 45.2741 31.3133 45.4411 31.1889 45.6422C31.0645 45.8433 30.9993 46.0714 31 46.3034L31.177 77.9798C31.1779 78.2104 31.2438 78.4367 31.3682 78.6362C31.4925 78.8357 31.671 79.0013 31.8857 79.1166L61.4686 94.8131C61.6841 94.9288 61.9284 94.9897 62.1772 94.9897C62.4259 94.9897 62.6703 94.9288 62.8857 94.8131L92.2914 78.8317C92.5074 78.7157 92.6867 78.5487 92.8111 78.3476C92.9356 78.1466 93.0007 77.9185 93 77.6865L92.8227 46.0166V46.0166ZM61.9257 45.4104L74.345 52.0008L74.384 63.5931L69.4894 60.9966L69.4666 54.645L61.9557 50.6596L54.482 54.7209L54.5033 61.0691L52.8364 61.9719L49.6283 63.888L49.5877 52.1127L61.9257 45.4104V45.4104ZM59.775 58.2088L56.2587 60.1152L56.2466 56.3405L59.7753 58.2088H59.775ZM39.857 66.9062V57.276L47.8286 52.9362L47.8463 58.1888L44.755 59.8692L44.78 64.2815L48.9003 66.4665L67.713 56.2511L67.7287 61.5036L48.9321 71.719L39.8573 66.9062H39.857ZM62.0744 78.5925L51.5486 73.0039L56.1793 70.2359L62.0443 73.3467L67.9644 70.1289L72.866 72.7288L62.0744 78.5925ZM75.183 71.5951L64.255 65.8006L69.1087 63.1514L75.1457 66.3478L79.2411 64.1218L79.2164 59.7095L76.1237 58.0619L76.106 52.8209L84.1427 57.09V66.7201L75.183 71.5951V71.5951Z" fill="#3F5DFF"/>
</g>
<defs>
<filter id="filter0_d" x="0" y="0" width="124" height="123" filterUnits="userSpaceOnUse" color-interpolation-filters="sRGB">
<feFlood flood-opacity="0" result="BackgroundImageFix"/>
<feColorMatrix in="SourceAlpha" type="matrix" values="0 0 0 0 0 0 0 0 0 0 0 0 0 0 0 0 0 0 127 0"/>
<feMorphology radius="1" operator="dilate" in="SourceAlpha" result="effect1_dropShadow"/>
<feOffset/>
<feGaussianBlur stdDeviation="1.5"/>
<feColorMatrix type="matrix" values="0 0 0 0 0 0 0 0 0 0 0 0 0 0 0 0 0 0 0.25 0"/>
<feBlend mode="normal" in2="BackgroundImageFix" result="effect1_dropShadow"/>
<feBlend mode="normal" in="SourceGraphic" in2="effect1_dropShadow" result="shape"/>
</filter>
<clipPath id="clip0">
<rect width="62" height="66" fill="white" transform="translate(31 29)"/>
</clipPath>
</defs>
</svg>
