<svg width="124" height="123" viewBox="0 0 124 123" fill="none" xmlns="http://www.w3.org/2000/svg">
<g filter="url(#filter0_d)">
<ellipse cx="62" cy="61.5" rx="58" ry="57.5" fill="white"/>
</g>
<path d="M89.7987 70.9212C89.7987 70.9212 87.6331 70.8892 86.3818 70.6778L83.7169 63.4003L86.4841 57.0197L90.5446 57.8397L92.9268 65.9307L89.7987 70.9212V70.9212Z" fill="#2F2F2F"/>
<path d="M35.183 70.9214C35.183 70.9214 37.1862 70.7868 38.5578 70.5242L43.0214 60.9981L38.5758 54.8289L31.718 60.0756L32.2955 69.3326L35.183 70.9214V70.9214Z" fill="#2F2F2F"/>
<path d="M98.2448 62.5742C89.6064 54.387 86.1113 44.3996 86.1113 44.3996C84.3668 38.9351 81.8282 33.6115 79.1392 30.0753C75.3674 25.1232 71.4211 21.5742 62.5842 21.587C53.7472 21.5678 49.6506 25.8471 45.6863 30.6198C42.883 33.9895 40.5008 39.0953 38.8886 44.406C38.8886 44.406 35.3996 54.3934 26.7611 62.5806C22.2193 66.8792 24.776 70.3514 29.0411 70.8318C31.2127 71.0817 33.2881 71.0817 35.189 70.9215C35.1469 70.7293 35.1168 70.5307 35.0807 70.3386C34.9725 69.6787 34.8943 69.0125 34.8642 68.3526C34.792 66.892 34.81 65.425 35.0687 63.9707C35.1289 63.612 35.189 62.0617 35.6221 61.0175C35.8989 60.364 36.326 59.9028 36.9997 60.0629C37.7577 60.2423 37.6614 60.9214 37.6434 61.3762C37.5832 63.1635 37.4028 64.8932 37.6735 66.6742C37.86 67.9746 38.1908 69.2559 38.5578 70.5307C39.5263 73.0484 40.9099 75.3739 42.8589 77.3662C45.6321 80.2042 49.037 82.1517 52.5682 83.3048C52.4118 83.9454 52.5862 84.759 52.5441 85.4253C52.4298 87.1165 51.726 88.0134 50.5409 89.0256C49.9814 89.5061 49.2957 89.8584 48.7242 90.3517C48.2309 90.7809 47.6654 91.4087 47.5752 92.0942C47.4609 92.9142 47.9181 93.5996 48.6039 93.8303C50.589 94.5029 54.042 95.0154 55.4557 92.8501C55.8647 92.2287 55.9008 91.3703 55.973 90.5887C56.0151 90.1531 56.0151 89.6086 55.973 89.1729C55.8647 88.007 55.955 86.8795 55.967 85.6751C55.973 85.1434 55.9911 84.6437 55.8888 84.2209C57.6694 84.6053 59.9975 84.9832 62.4037 84.9832C64.8641 84.9832 67.3907 84.5925 69.2976 84.2017C69.1893 84.6309 69.2014 85.137 69.2074 85.6815C69.2254 86.8859 69.3157 88.0198 69.2074 89.1793C69.1593 89.615 69.1593 90.1595 69.2074 90.5951C69.2796 91.3767 69.3157 92.2351 69.7187 92.8565C71.1384 95.0154 74.5914 94.5093 76.5705 93.8367C77.2623 93.6061 77.7075 92.9206 77.5992 92.1006C77.5089 91.4151 76.9435 90.7873 76.4562 90.3581C75.8787 89.8648 75.1989 89.5125 74.6335 89.032C73.4484 88.0198 72.7446 87.1229 72.6423 85.4317C72.5942 84.7654 72.7566 83.9582 72.6062 83.3112C76.1434 82.1581 79.5482 80.2042 82.3214 77.3726C83.9036 75.7454 85.1067 73.9004 86.0211 71.9081C86.0271 71.8953 86.0331 71.8889 86.0331 71.8825C86.5745 70.1656 87.0678 68.4359 87.3325 66.6806C87.6032 64.8932 87.4167 63.17 87.3565 61.3826C87.3445 60.9278 87.2422 60.2487 88.0002 60.0693C88.6739 59.9092 89.1011 60.3704 89.3778 61.0239C89.8109 62.0681 89.8711 63.6248 89.9372 63.9771C90.1959 65.4314 90.2139 66.8984 90.1357 68.359C90.1057 69.0189 90.0275 69.6851 89.9192 70.345C89.8891 70.5371 89.847 70.7293 89.8049 70.9279C91.6998 71.0881 93.7872 71.0881 95.9649 70.8382C100.224 70.345 102.781 66.8792 98.2448 62.5742V62.5742Z" fill="#FCC21B"/>
<path d="M52.8748 45.7257C52.4658 47.5643 50.9799 48.7174 49.5723 48.333C48.1526 47.9358 47.3405 46.1293 47.7495 44.2907C48.1646 42.4649 49.6445 41.2926 51.0641 41.6962C52.4778 42.0805 53.2899 43.8935 52.8748 45.7257V45.7257Z" fill="#2F2F2F"/>
<path d="M72.2153 45.7257C72.6244 47.5643 74.1163 48.7174 75.5239 48.333C76.9376 47.9358 77.7557 46.1293 77.3467 44.2907C76.9316 42.4649 75.4457 41.2926 74.0381 41.6962C72.6123 42.0805 71.8063 43.8935 72.2153 45.7257Z" fill="#2F2F2F"/>
<path d="M57.1642 52.4969C57.1221 52.4072 57.08 52.3176 57.0439 52.2279C56.6048 51.0363 57.489 50.2099 58.229 49.6269C58.8245 49.1593 59.414 48.666 60.0577 48.288C60.8217 47.8332 61.7361 47.5385 62.5903 47.5449C63.8837 47.5577 65.1229 48.1535 66.2237 48.9287C66.6147 49.1977 66.9757 49.5052 67.3607 49.7807C67.469 49.8576 67.5592 49.9665 67.6554 50.0626C68.263 50.6647 68.5518 51.8435 68.0465 52.6187C67.7938 52.9966 67.3968 53.2913 67.0719 53.5796C66.6388 53.9704 66.2237 54.3996 65.7485 54.7263C65.153 55.1427 64.5514 55.5335 63.9558 55.9307C63.4987 56.2318 63.1016 56.693 62.5121 56.5969C61.8083 56.4816 61.1105 55.8858 60.551 55.4502C60.16 55.1491 59.7569 54.8672 59.3719 54.5405C58.9448 54.201 58.614 53.6821 58.1447 53.4258C57.7056 53.176 57.4108 52.971 57.1642 52.4969V52.4969Z" fill="#F79329"/>
<defs>
<filter id="filter0_d" x="0" y="0" width="124" height="123" filterUnits="userSpaceOnUse" color-interpolation-filters="sRGB">
<feFlood flood-opacity="0" result="BackgroundImageFix"/>
<feColorMatrix in="SourceAlpha" type="matrix" values="0 0 0 0 0 0 0 0 0 0 0 0 0 0 0 0 0 0 127 0"/>
<feMorphology radius="1" operator="dilate" in="SourceAlpha" result="effect1_dropShadow"/>
<feOffset/>
<feGaussianBlur stdDeviation="1.5"/>
<feColorMatrix type="matrix" values="0 0 0 0 0 0 0 0 0 0 0 0 0 0 0 0 0 0 0.25 0"/>
<feBlend mode="normal" in2="BackgroundImageFix" result="effect1_dropShadow"/>
<feBlend mode="normal" in="SourceGraphic" in2="effect1_dropShadow" result="shape"/>
</filter>
</defs>
</svg>
