<svg width="70" height="72" viewBox="0 0 70 72" fill="none" xmlns="http://www.w3.org/2000/svg">
<g filter="url(#filter0_d)">
<ellipse cx="35" cy="36" rx="32" ry="33" fill="#FFA3A3"/>
</g>
<path d="M35 35L20.08 29.338L21 50.2H17L17.96 28.521L15 27.4L35 19.8L55 27.4L35 35ZM35 25.5C33.9 25.5 33 25.918 33 26.45C33 26.982 33.9 27.4 35 27.4C36.1 27.4 37 26.982 37 26.45C37 25.918 36.1 25.5 35 25.5ZM35 36.9L46.14 32.663C47.56 34.449 48.54 36.596 48.86 38.933C48.26 38.857 47.64 38.8 47 38.8C41.9 38.8 37.44 41.403 35 45.279C33.7615 43.3044 32.0045 41.6692 29.901 40.5335C27.7974 39.3978 25.4195 38.8004 23 38.8C22.36 38.8 21.74 38.857 21.14 38.933C21.46 36.596 22.44 34.449 23.86 32.663L35 36.9Z" fill="black"/>
<defs>
<filter id="filter0_d" x="0" y="0" width="70" height="72" filterUnits="userSpaceOnUse" color-interpolation-filters="sRGB">
<feFlood flood-opacity="0" result="BackgroundImageFix"/>
<feColorMatrix in="SourceAlpha" type="matrix" values="0 0 0 0 0 0 0 0 0 0 0 0 0 0 0 0 0 0 127 0"/>
<feMorphology radius="1" operator="dilate" in="SourceAlpha" result="effect1_dropShadow"/>
<feOffset/>
<feGaussianBlur stdDeviation="1"/>
<feColorMatrix type="matrix" values="0 0 0 0 0 0 0 0 0 0 0 0 0 0 0 0 0 0 0.25 0"/>
<feBlend mode="normal" in2="BackgroundImageFix" result="effect1_dropShadow"/>
<feBlend mode="normal" in="SourceGraphic" in2="effect1_dropShadow" result="shape"/>
</filter>
</defs>
</svg>
