<svg width="124" height="123" viewBox="0 0 124 123" fill="none" xmlns="http://www.w3.org/2000/svg">
<g filter="url(#filter0_d)">
<ellipse cx="62" cy="61.5" rx="58" ry="57.5" fill="#9DFAB7"/>
</g>
<g clip-path="url(#clip0)">
<path d="M71.844 60.7749L68.1877 64.2624L71.844 67.7499L66.969 72.3999L84.4377 89.0624C86.8752 91.3874 90.5315 91.3874 92.969 89.0624C95.4065 86.7374 95.4065 83.2499 92.969 80.9249L71.844 60.7749ZM87.6877 87.1249C86.0627 87.1249 84.4377 85.9624 84.4377 84.0249C84.4377 82.4749 85.6565 80.9249 87.6877 80.9249C89.719 80.9249 90.9377 82.0874 90.9377 84.0249C90.9377 85.9624 89.719 87.1249 87.6877 87.1249Z" fill="black"/>
<path d="M44.625 60L48.2812 57.675L54.375 51.0875L58.0313 54.575L61.6875 51.0875L61.2812 50.7C62.0937 48.7625 62.5 46.825 62.5 44.5C62.5 35.975 55.1875 29 46.25 29C43.8125 29 41.7813 29.3875 39.75 30.1625L51.5313 41.4L43 49.5375L31.2188 38.3C30.4063 40.2375 30 42.175 30 44.5C30 52.6375 36.5 58.8375 44.625 60Z" fill="black"/>
<path d="M62.5002 70.8499L66.1565 67.7499L62.5002 64.2624L85.6565 42.175L90.5315 40.625L95.0003 32.1L92.1565 29.3875L82.8127 33.2625L80.7815 37.9125L58.0315 59.9999L54.3752 56.5124L51.1252 59.9999C51.1252 59.9999 54.3752 62.3249 50.719 65.8124C48.6877 67.7499 45.4377 65.4249 39.344 71.2374L30.8127 79.3749C30.8127 79.3749 28.3752 83.2499 33.2502 87.8999C38.1252 92.5499 42.1877 90.2249 42.1877 90.2249L50.719 82.0874C56.4065 76.6624 54.3752 73.1749 56.0002 71.6249C59.6565 68.1374 62.5002 70.8499 62.5002 70.8499ZM49.9065 69.2999L52.7502 72.0124L37.3127 86.7374L34.469 84.0249L49.9065 69.2999Z" fill="black"/>
</g>
<defs>
<filter id="filter0_d" x="0" y="0" width="124" height="123" filterUnits="userSpaceOnUse" color-interpolation-filters="sRGB">
<feFlood flood-opacity="0" result="BackgroundImageFix"/>
<feColorMatrix in="SourceAlpha" type="matrix" values="0 0 0 0 0 0 0 0 0 0 0 0 0 0 0 0 0 0 127 0"/>
<feMorphology radius="1" operator="dilate" in="SourceAlpha" result="effect1_dropShadow"/>
<feOffset/>
<feGaussianBlur stdDeviation="1.5"/>
<feColorMatrix type="matrix" values="0 0 0 0 0 0 0 0 0 0 0 0 0 0 0 0 0 0 0.25 0"/>
<feBlend mode="normal" in2="BackgroundImageFix" result="effect1_dropShadow"/>
<feBlend mode="normal" in="SourceGraphic" in2="effect1_dropShadow" result="shape"/>
</filter>
<clipPath id="clip0">
<rect width="65" height="62" fill="white" transform="translate(30 29)"/>
</clipPath>
</defs>
</svg>
