<svg width="72" height="74" viewBox="0 0 72 74" fill="none" xmlns="http://www.w3.org/2000/svg">
<g filter="url(#filter0_d)">
<ellipse cx="36" cy="37" rx="32" ry="33" fill="#E6DBFF"/>
</g>
<g clip-path="url(#clip0)">
<path d="M28.3307 33.2783L49.7595 11.3567L59.7825 21.6156L38.3531 43.5372L28.3307 33.2783Z" fill="#FFCE31"/>
<path d="M64.1859 8.1625L62.9094 6.85625C60.4906 4.38125 56.5937 4.38125 54.1078 6.85625L49.7406 11.325L59.8187 21.6375L64.1859 17.1688C66.6047 14.6938 66.6047 10.6375 64.1859 8.1625Z" fill="#ED4C5C"/>
<path d="M47.0411 14.1506L49.7958 11.3305L59.8202 21.588L57.0655 24.4074L47.0411 14.1506Z" fill="#93A2AA"/>
<path d="M48.0864 15.2196L50.8411 12.4002L58.7283 20.4701L55.9722 23.2888L48.0864 15.2196Z" fill="#C7D3D8"/>
<path d="M28.3077 33.2563L23.9406 44.9438L26.964 48.0375L38.3859 43.5688L28.3077 33.2563Z" fill="#FED0AC"/>
<path d="M23.2015 47.0062C22.5968 48.6562 23.4031 49.4125 25.0156 48.7937L30.5249 46.6625L25.3515 41.3687L23.2015 47.0062" fill="#333333"/>
<path d="M28.3011 33.3078L47.0196 14.1541L50.3454 17.5572L31.6269 36.7109L28.3011 33.3078Z" fill="#FFDF85"/>
<path d="M35.0292 40.1601L53.7476 21.0063L57.0734 24.4095L38.355 43.5632L35.0292 40.1601Z" fill="#FF8736"/>
</g>
<defs>
<filter id="filter0_d" x="0" y="0" width="72" height="74" filterUnits="userSpaceOnUse" color-interpolation-filters="sRGB">
<feFlood flood-opacity="0" result="BackgroundImageFix"/>
<feColorMatrix in="SourceAlpha" type="matrix" values="0 0 0 0 0 0 0 0 0 0 0 0 0 0 0 0 0 0 127 0"/>
<feMorphology radius="1" operator="dilate" in="SourceAlpha" result="effect1_dropShadow"/>
<feOffset/>
<feGaussianBlur stdDeviation="1.5"/>
<feColorMatrix type="matrix" values="0 0 0 0 0 0 0 0 0 0 0 0 0 0 0 0 0 0 0.25 0"/>
<feBlend mode="normal" in2="BackgroundImageFix" result="effect1_dropShadow"/>
<feBlend mode="normal" in="SourceGraphic" in2="effect1_dropShadow" result="shape"/>
</filter>
<clipPath id="clip0">
<rect width="43" height="44" fill="white" transform="translate(23 5)"/>
</clipPath>
</defs>
</svg>
