<svg width="70" height="72" viewBox="0 0 70 72" fill="none" xmlns="http://www.w3.org/2000/svg">
<g filter="url(#filter0_d)">
<ellipse cx="35" cy="36" rx="32" ry="33" fill="#CBFFCA"/>
</g>
<g clip-path="url(#clip0)">
<path d="M42.9375 50.1875H40.125V38.085L35.5828 43.7837C35.4509 43.9501 35.2854 44.0839 35.0982 44.1758C34.9111 44.2677 34.7068 44.3154 34.5 44.3154C34.2932 44.3154 34.0889 44.2677 33.9018 44.1758C33.7146 44.0839 33.5491 43.9501 33.4172 43.7837L28.875 38.085V50.1875H26.0625V34.0313C26.0626 33.7294 26.1518 33.4349 26.3179 33.1879C26.4839 32.9409 26.7188 32.7533 26.9906 32.6506C27.2626 32.5474 27.5584 32.5343 27.8378 32.6132C28.1171 32.692 28.3664 32.859 28.5516 33.0913L34.5 40.5525L40.4484 33.0913C40.6336 32.859 40.8829 32.692 41.1622 32.6132C41.4416 32.5343 41.7374 32.5474 42.0094 32.6506C42.2812 32.7533 42.5161 32.9409 42.6821 33.1879C42.8482 33.4349 42.9374 33.7294 42.9375 34.0313V50.1875Z" fill="black"/>
<path d="M17.8502 33.5171L13.6315 30.9468C13.5094 30.8676 13.3733 30.8149 13.2313 30.7917C13.0893 30.7686 12.9443 30.7756 12.8049 30.8122C12.6655 30.8488 12.5346 30.9143 12.4199 31.0048C12.3053 31.0954 12.2093 31.209 12.1376 31.3391C12.0658 31.4692 12.0199 31.6131 12.0025 31.7621C11.9851 31.9111 11.9966 32.0622 12.0363 32.2065C12.0759 32.3508 12.143 32.4852 12.2334 32.6019C12.3239 32.7186 12.4359 32.815 12.5627 32.8855L16.7815 35.4999C16.9027 35.5886 17.0403 35.65 17.1854 35.6802C17.3306 35.7104 17.4802 35.7088 17.6247 35.6755C17.7692 35.6422 17.9056 35.5779 18.0251 35.4867C18.1446 35.3955 18.2446 35.2794 18.3189 35.1457C18.3932 35.0119 18.44 34.8636 18.4566 34.71C18.4731 34.5563 18.4588 34.4008 18.4148 34.2532C18.3707 34.1056 18.2978 33.9692 18.2006 33.8526C18.1034 33.736 17.9841 33.6418 17.8502 33.5759V33.5171Z" fill="black"/>
<path d="M23.6578 27.4513C23.7249 27.5741 23.8145 27.6818 23.9216 27.7683C24.0288 27.8548 24.1512 27.9183 24.2819 27.9552C24.4126 27.992 24.549 28.0015 24.6832 27.9831C24.8175 27.9647 24.9469 27.9187 25.064 27.8478C25.2984 27.7034 25.4703 27.4699 25.5436 27.1961C25.617 26.9224 25.5863 26.6297 25.4578 26.3791L23.0109 21.9728C22.9434 21.8403 22.851 21.7233 22.7393 21.6289C22.6276 21.5344 22.4989 21.4644 22.3607 21.4229C22.2226 21.3815 22.0779 21.3695 21.9352 21.3877C21.7926 21.4059 21.6549 21.4538 21.5303 21.5287C21.4057 21.6036 21.2969 21.7039 21.2102 21.8237C21.1235 21.9434 21.0608 22.0801 21.0258 22.2257C20.9907 22.3713 20.9841 22.5228 21.0062 22.6711C21.0283 22.8194 21.0788 22.9615 21.1547 23.0891L23.6578 27.4513Z" fill="black"/>
<path d="M34.5 25.2188C34.7835 25.2188 35.0553 25.1011 35.2557 24.8918C35.4562 24.6825 35.5688 24.3985 35.5688 24.1025V18.9913C35.5688 18.6952 35.4562 18.4113 35.2557 18.2019C35.0553 17.9926 34.7835 17.875 34.5 17.875C34.2166 17.875 33.9447 17.9926 33.7443 18.2019C33.5439 18.4113 33.4313 18.6952 33.4313 18.9913V24.1172C33.435 24.4107 33.5492 24.6908 33.7492 24.897C33.9493 25.1032 34.219 25.2188 34.5 25.2188V25.2188Z" fill="black"/>
<path d="M43.8938 27.8479C44.0508 27.9482 44.2301 28.0039 44.4141 28.0094C44.6021 28.0099 44.787 27.9585 44.9499 27.8605C45.1129 27.7625 45.2482 27.6214 45.3422 27.4513L47.8032 23.045C47.9338 22.7887 47.9639 22.4894 47.8872 22.2103C47.8104 21.9312 47.6328 21.6942 47.3919 21.5493C47.151 21.4044 46.8656 21.363 46.5959 21.4338C46.3263 21.5046 46.0936 21.6821 45.9469 21.9288L43.5 26.335C43.4299 26.4611 43.3844 26.6005 43.3663 26.7451C43.3481 26.8897 43.3576 27.0367 43.3942 27.1774C43.4309 27.3181 43.4939 27.4498 43.5796 27.5649C43.6654 27.68 43.7722 27.7762 43.8938 27.8479V27.8479Z" fill="black"/>
<path d="M56.8595 31.3582C56.7188 31.1161 56.4952 30.9389 56.2341 30.8626C55.973 30.7862 55.6939 30.8164 55.4533 30.9469L51.2345 33.5172C50.9828 33.6536 50.7932 33.8888 50.7075 34.1711C50.6218 34.4534 50.647 34.7598 50.7775 35.0227C50.908 35.2856 51.1332 35.4836 51.4035 35.5732C51.6739 35.6627 51.9671 35.6364 52.2189 35.5L56.4376 32.9444C56.5683 32.8726 56.6835 32.7736 56.7761 32.6536C56.8688 32.5335 56.9369 32.395 56.9765 32.2464C57.016 32.0979 57.026 31.9424 57.0059 31.7897C56.9858 31.6369 56.936 31.4901 56.8595 31.3582V31.3582Z" fill="black"/>
</g>
<defs>
<filter id="filter0_d" x="0" y="0" width="70" height="72" filterUnits="userSpaceOnUse" color-interpolation-filters="sRGB">
<feFlood flood-opacity="0" result="BackgroundImageFix"/>
<feColorMatrix in="SourceAlpha" type="matrix" values="0 0 0 0 0 0 0 0 0 0 0 0 0 0 0 0 0 0 127 0"/>
<feMorphology radius="1" operator="dilate" in="SourceAlpha" result="effect1_dropShadow"/>
<feOffset/>
<feGaussianBlur stdDeviation="1"/>
<feColorMatrix type="matrix" values="0 0 0 0 0 0 0 0 0 0 0 0 0 0 0 0 0 0 0.25 0"/>
<feBlend mode="normal" in2="BackgroundImageFix" result="effect1_dropShadow"/>
<feBlend mode="normal" in="SourceGraphic" in2="effect1_dropShadow" result="shape"/>
</filter>
<clipPath id="clip0">
<rect width="45" height="47" fill="white" transform="translate(12 12)"/>
</clipPath>
</defs>
</svg>
