<svg width="124" height="123" viewBox="0 0 124 123" fill="none" xmlns="http://www.w3.org/2000/svg">
<g filter="url(#filter0_d)">
<ellipse cx="62" cy="61.5" rx="58" ry="57.5" fill="#D9C7FF"/>
</g>
<path d="M72.1571 59.3951L75.8351 62.6026L71.2517 66.5997C70.9122 66.8957 70.9122 67.1918 71.2517 67.4879L72.2137 68.3268C72.5532 68.6229 72.8927 68.6229 73.2322 68.3268L77.8156 64.3298L84.8888 70.498L80.3054 74.495C79.9659 74.7911 79.9659 75.0707 80.3054 75.3339L81.2673 76.2221C81.6068 76.5182 81.9463 76.5182 82.2859 76.2221L86.8693 72.2251L90.4341 75.3339C90.7737 75.63 90.9434 75.9919 90.9434 76.4195C90.9434 76.8472 90.7737 77.2255 90.4341 77.5545L81.3805 85.4498C81.0033 85.7459 80.5694 85.894 80.079 85.894C79.5886 85.894 79.1737 85.7459 78.8341 85.4498L60.5571 69.5111L49.919 78.7881C49.3154 79.3145 48.5798 79.5777 47.7122 79.5777C46.8446 79.5777 46.1089 79.3145 45.5054 78.7881L41.2049 74.9885C40.6013 74.4621 40.2995 73.8289 40.2995 73.0887C40.2995 72.3485 40.6013 71.7152 41.2049 71.1888L51.8429 61.9118L33.5093 45.9237C33.1698 45.6276 33 45.2657 33 44.8381C33 44.4104 33.1698 44.0485 33.5093 43.7525L42.5629 35.8078C42.9402 35.5117 43.374 35.3636 43.8644 35.3636C44.3548 35.3636 44.7698 35.5117 45.1093 35.8078L48.6741 38.9166L44.0907 42.9136C43.7512 43.2097 43.7512 43.5057 44.0907 43.8018L45.0527 44.6407C45.3922 44.9368 45.7317 44.9368 46.0712 44.6407L50.6546 40.6437L57.7278 46.8119L53.1444 50.8089C52.8049 51.105 52.8049 51.4011 53.1444 51.6972L54.1063 52.5361C54.4459 52.8321 54.7854 52.8321 55.1249 52.5361L59.7083 48.539L63.3863 51.7959L81.3239 36.1532C81.9275 35.6268 82.6537 35.3636 83.5024 35.3636C84.3512 35.3636 85.0774 35.6268 85.681 36.1532L90.038 39.9528C90.6416 40.4792 90.9434 41.1125 90.9434 41.8526C90.9434 42.5928 90.6416 43.2261 90.038 43.7525L72.1571 59.3951ZM36.7346 75.2352C36.8101 75.4984 36.9421 75.7122 37.1307 75.8767L44.4868 82.2917C44.6754 82.4562 44.9207 82.5713 45.2224 82.6371C45.0338 82.9661 44.8829 83.1635 44.7698 83.2293L34.8107 85.894C33.9054 85.894 33.3772 85.8282 33.2263 85.6966C33.0754 85.565 33 85.1044 33 84.3149L36.0556 75.63C36.1311 75.5642 36.3574 75.4326 36.7346 75.2352Z" fill="#373737"/>
<defs>
<filter id="filter0_d" x="0" y="0" width="124" height="123" filterUnits="userSpaceOnUse" color-interpolation-filters="sRGB">
<feFlood flood-opacity="0" result="BackgroundImageFix"/>
<feColorMatrix in="SourceAlpha" type="matrix" values="0 0 0 0 0 0 0 0 0 0 0 0 0 0 0 0 0 0 127 0"/>
<feMorphology radius="1" operator="dilate" in="SourceAlpha" result="effect1_dropShadow"/>
<feOffset/>
<feGaussianBlur stdDeviation="1.5"/>
<feColorMatrix type="matrix" values="0 0 0 0 0 0 0 0 0 0 0 0 0 0 0 0 0 0 0.25 0"/>
<feBlend mode="normal" in2="BackgroundImageFix" result="effect1_dropShadow"/>
<feBlend mode="normal" in="SourceGraphic" in2="effect1_dropShadow" result="shape"/>
</filter>
</defs>
</svg>
