<svg width="842" height="596" viewBox="0 0 842 596" fill="none" xmlns="http://www.w3.org/2000/svg">
<path d="M206.026 430C205.626 426.4 209.86 408.5 212.026 400L213.026 396L219.526 400L235.026 417.5V426C236.626 437.6 250.36 455.833 257.026 463.5L251.026 471.5L229.526 480.5L227.526 478.5C206.026 458.5 206.526 434.5 206.026 430Z" fill="url(#paint0_linear)"/>
<path d="M363 279L352.5 277H349L344 300.5L338 334L322.5 360L307 397L293 421L272 453.5L264 465.5L233.5 491.5L259 482.5L273.5 474C277.333 471.167 275 471 275 465.5C275 462 287.897 461.103 294 455C300.5 448.5 301 444.5 303.5 443.5C305.5 442.7 308.333 437.167 309.5 434.5L310.5 420L326.5 399C328.333 397.5 328.8 389.2 330 388C331.5 386.5 329 384 336 373.5C340.681 366.479 346.333 357.833 349 354.5L359 340L365.5 324.5L371.5 317V303.5L365.5 291.5L363 279Z" fill="url(#paint1_linear)"/>
<path d="M437.5 165L421 159L425.5 131V118.5L435 119L445 116L466 109L482.5 110L492.5 115.5L498.5 124.5L497.5 126.5C494.5 126 492.372 123.791 490 123C488.5 122.5 487.167 122.833 486.5 123L439.5 128.5L441 130C445 139.6 440.333 157.333 437.5 165Z" fill="url(#paint2_linear)"/>
<path d="M316.5 168.5L290.5 165L287 169.5L297 175.5L311 187L336 192.5L344 187C344.667 186.333 344 184.8 336 184C328 183.2 319.667 173.333 316.5 168.5Z" fill="url(#paint3_linear)"/>
<path d="M253.5 364.5L225.5 374.749L224 377.249H227L237.5 383.249L241.5 404.249L235.5 418.5L236.5 421L266 407.749C267.833 408.249 271.5 406.049 271.5 393.249C271.5 380.449 267.833 371.249 266 368.249C259.2 361.849 254.667 363.833 253.5 364.5Z" fill="url(#paint4_linear)"/>
<path d="M259.5 277.5L263.5 281.5L267 285L263 295L251.5 299L240 294L230 288.5L225 283.5L224 278.5L221.5 262L220.5 249L212.5 243L205 249L197 244L198 238L202 227L208.5 211.5L220.5 189.5L231.5 179.5L244.5 177.5L256.5 172H276C280.333 175 288.7 181.1 287.5 181.5C286.3 181.9 280.333 185.667 277.5 187.5C270.3 185.1 262.5 187.167 259.5 188.5C252.3 192.9 242.5 212.667 238.5 222C236.5 224.4 235.333 230.333 235 233H236H239L246 234C254 238 256 245 258 249C259.6 252.2 259.667 269.333 259.5 277.5Z" fill="url(#paint5_linear)"/>
<path d="M310 250L283.5 251.5L280.5 255.5L288 264L279 282L257 305L286.5 302L294 299L308.5 284C309.667 282.167 312.6 276.1 315 266.5C317.4 256.9 312.667 251.5 310 250Z" fill="url(#paint6_linear)"/>
<path d="M586.5 121.5C597.3 112.3 607.5 92.5 608.5 85C609 86.8333 608.5 93.9 608.5 95.5C608.5 97.1 607.5 101.833 607 104L602.5 115C600.167 118.5 595.1 126.3 593.5 129.5C591.9 132.7 580.167 140.5 574.5 144C572.333 144.833 565.408 148.955 554.5 148.5C542.5 148 538.833 145.5 536 144C533.167 142.5 526.3 139.3 521.5 138.5C515.5 137.5 516 140.5 513.5 142C511.785 143.029 507.333 153 505.5 158.5L492 181L477 210.5C475 213.333 471 221 471 229C471 237 468 243.667 466.5 246L454.5 271C452.667 280.333 448.9 300.1 448.5 304.5C448 310 437 343.5 432 350C428 355.2 423.667 373.833 422 382.5L418 412.5C417.167 421.167 415.5 439.4 415.5 443C415.5 446.6 422.5 457.167 426 462C429.2 464.4 430.333 476.333 430.5 482C425.989 487.331 417.307 496.9 414.993 499.728C414.85 500.107 414.686 500.376 414.5 500.5C414.284 500.644 414.486 500.348 414.993 499.728C415.774 497.659 415.923 492.317 415.5 489.5C415.833 487.5 412.9 483.2 406.5 476C400.1 468.8 400.167 457.167 400 453L402 427.5L405.5 385L420 355.5L431.5 328L435.5 314L438.5 297.5L441 273L444 269L453.5 251.5L458 242.5L461 220.5L465.5 210.5L481 182.5L494 158.5L502 142C503.167 140.167 506.1 135.6 508.5 132C510.9 128.4 521 122.833 523.5 123.5L538.5 135.5L561.5 136.5C566.5 134.5 575.7 130.7 586.5 121.5Z" fill="url(#paint7_linear)"/>
<path d="M401.5 176C401.5 170 388.167 166.833 381.5 166L376 166.5L377 170V187V203.5L384.5 216L381 230.5L379.5 248.5L389.5 266.5V286L394 358.5L396 373L398 372L403.5 362L412.5 348.5V341.5V334.5C411.333 318.833 409.2 284.9 410 274.5C410.8 264.1 407 256.833 405 254.5C404.5 254.167 403.1 251.4 401.5 243C399.9 234.6 403.167 231.167 405 230.5C406.333 228 409 221.2 409 214C409 206.8 404 204 401.5 203.5V176Z" fill="url(#paint8_linear)"/>
<path d="M290.5 261.545C290.5 259.145 286.5 253.878 284.5 251.545C279.7 251.545 266.833 260.545 261 265.045L264.5 282.545L256.5 293.045H253L234.5 279.545V265.045C234.5 258.245 230.5 247.878 228.5 243.545L216.5 234.545L206.5 239.045C211.167 226.545 220.7 200.845 221.5 198.045C222.3 195.245 232.167 186.878 237 183.045H253C256.6 183.045 260.167 179.045 261.5 177.045L274 174.545L284.5 180.545L303 191.045L322 198.045C328.4 201.645 337.333 201.878 341 201.545L356 198.045L357.5 204.545V217.045L350.5 251.545L341 286.545L336.5 313.045C338.5 323.845 330 331.545 325.5 334.045L317.5 360.545L305.5 376.045L287 404.045L270 430.545C270 435.345 264 446.545 261 451.545C246.6 470.745 232 476.212 226.5 476.545C218.1 470.945 209.667 443.545 206.5 430.545C206.5 423.345 210.833 406.545 213 399.045L237 420.545C237.833 419.212 240.2 414.845 243 408.045C245.8 401.245 241.833 386.545 239.5 380.045C231.1 366.445 218.333 378.712 213 386.545L199.5 416.545C197.1 422.545 198.5 434.378 199.5 439.545L216.5 476.545C220.1 488.145 230 491.712 234.5 492.045C234.9 487.645 247 484.545 253 483.545L270 473.045C268 468.378 266 458.645 274 457.045C282 455.445 286 448.045 287 444.545L294.5 433.045C297 423.878 303.3 405.245 308.5 404.045C313.7 402.845 318 394.212 319.5 390.045C320.167 382.545 323.5 365.545 331.5 357.545C339.5 349.545 344.833 336.212 346.5 330.545L350.5 308.545L356 279.545H360.5L363 293.045L369.5 302.045V313.045L366.5 360.545L375.5 386.545L372.5 399.045V462.045L380 476.545L396.5 501.545C398.333 502.545 404 503.945 412 501.545C420 499.145 417 487.212 414.5 481.545C408.1 477.145 403.5 463.378 402 457.045V439.545L407 393.045L412 380.045L427 344.045L436.5 315.545L443.5 271.545L459.5 243.545L462 219.045L472 201.545L491.5 164.545C495.667 156.712 505 139.345 509 132.545C513 125.745 522.333 127.712 526.5 129.545L540.5 138.545C543.667 138.212 550.7 137.745 553.5 138.545C556.3 139.345 570.667 136.212 577.5 134.545C593.5 121.045 597.5 112.045 604 101.045C610.5 90.0449 609 74.0449 609 70.0449C609 66.0449 598 50.0449 595 51.0449C592.6 51.8449 582.333 55.7116 577.5 57.5449C576.5 57.7116 570.8 59.3449 556 64.5449C541.2 69.7449 533.5 79.7115 531.5 84.0449C525.333 91.5449 512.8 107.245 512 110.045C511 113.545 509.5 112.045 504 112.045C499.6 112.045 493.833 104.712 491.5 101.045L472 103.545C467.833 104.378 457.4 107.245 449 112.045C440.6 116.845 430.833 117.712 427 117.545C422 117.378 411 117.145 407 117.545C403 117.945 399 122.378 397.5 124.545C397 126.212 396.8 130.545 400 134.545C403.2 138.545 412.667 141.878 417 143.045L420 159.545H427C433 153.945 433.5 132.212 433 122.045L488.5 115.045L496 124.545L491.5 134.545L469.5 174.545L449 221.545L430.5 271.545L422.5 308.545L414.5 342.045L399 367.545C397.333 340.212 394 282.745 394 271.545C394 260.345 389.333 252.212 387 249.545V234.545C388.5 231.712 392 223.945 394 215.545C396 207.145 388.5 202.712 384.5 201.545V166.545L379.5 164.545L369.5 169.545H363.5C357.5 181.945 352 182.045 350 180.545L341 183.045L337 186.545H331.5H322L314 183.045L300.5 174.545L290.5 164.545C288.1 165.745 270.167 168.378 261.5 169.545H237C224 173.545 214 189.045 210.5 193.545C207 198.045 200 213.045 199.5 215.545L197 228.045L192 239.045V247.545C201.6 269.945 226 290.212 237 297.545C242 300.045 252.9 305.045 256.5 305.045C260.1 305.045 267 301.378 270 299.545C274.833 294.378 285 283.145 287 279.545C289.5 275.045 290.5 264.545 290.5 261.545Z" fill="#7894F8"/>
<path d="M535.104 115L540.104 118H543.104L544.104 113.5L558.104 99L573.604 89H577.104L578.604 93L580.604 91.5L581.104 88L579.604 85L576.104 80.5L575.104 75H571.104L567.604 77.5L551.104 88C546.604 91.8333 537.104 100.7 535.104 105.5C533.104 110.3 534.271 113.833 535.104 115Z" fill="url(#paint9_linear)"/>
<path d="M546.605 106C540.605 111.6 540.105 115.333 540.605 116.5C543.805 119.3 551.271 119.667 554.604 119.5C559.938 119.5 571.404 117.8 574.604 111C577.804 104.2 578.604 97.8333 578.604 95.5V92V88.5L577.104 87H573.104L564.104 92C560.771 94.3333 552.605 100.4 546.605 106Z" fill="white"/>
<defs>
<linearGradient id="paint0_linear" x1="190" y1="426" x2="265.5" y2="467" gradientUnits="userSpaceOnUse">
<stop stop-color="#4B4747"/>
<stop offset="1" stop-color="#4B4747" stop-opacity="0"/>
</linearGradient>
<linearGradient id="paint1_linear" x1="285.5" y1="415.5" x2="318" y2="495.5" gradientUnits="userSpaceOnUse">
<stop stop-color="#6C6868"/>
<stop offset="1" stop-color="#5F4D4D" stop-opacity="0"/>
</linearGradient>
<linearGradient id="paint2_linear" x1="481.5" y1="143.5" x2="451.5" y2="82.5" gradientUnits="userSpaceOnUse">
<stop stop-color="#665F5F"/>
<stop offset="1" stop-color="#776F6F" stop-opacity="0.49"/>
</linearGradient>
<linearGradient id="paint3_linear" x1="350.5" y1="211" x2="294" y2="158" gradientUnits="userSpaceOnUse">
<stop offset="0.017056" stop-color="#7B7171"/>
<stop offset="1" stop-color="#8B8B8B" stop-opacity="0.44"/>
</linearGradient>
<linearGradient id="paint4_linear" x1="206" y1="392" x2="300" y2="424.5" gradientUnits="userSpaceOnUse">
<stop stop-color="#444343"/>
<stop offset="1" stop-color="#6C5D5D" stop-opacity="0"/>
</linearGradient>
<linearGradient id="paint5_linear" x1="197" y1="243.5" x2="296.5" y2="212" gradientUnits="userSpaceOnUse">
<stop offset="0.00995217" stop-color="#3E3A3A"/>
<stop offset="1" stop-color="#464141" stop-opacity="0.15"/>
</linearGradient>
<linearGradient id="paint6_linear" x1="267.5" y1="273" x2="319.5" y2="286" gradientUnits="userSpaceOnUse">
<stop stop-color="#1E1E1E"/>
<stop offset="1" stop-color="#3F3535" stop-opacity="0"/>
</linearGradient>
<linearGradient id="paint7_linear" x1="443" y1="188" x2="741.5" y2="163.5" gradientUnits="userSpaceOnUse">
<stop stop-color="#787878" stop-opacity="0.88"/>
<stop offset="1" stop-color="#605F5F" stop-opacity="0.07"/>
</linearGradient>
<linearGradient id="paint8_linear" x1="374.5" y1="258" x2="415.5" y2="251" gradientUnits="userSpaceOnUse">
<stop stop-color="#43423E"/>
<stop offset="1" stop-color="#B1B1B0"/>
</linearGradient>
<linearGradient id="paint9_linear" x1="545.104" y1="90.5" x2="556.104" y2="103" gradientUnits="userSpaceOnUse">
<stop stop-color="#3F3D3D"/>
<stop offset="1" stop-color="#918C8C"/>
</linearGradient>
</defs>
</svg>
